<?xml version="1.0" encoding="UTF-8" standalone="no"?>
<svg width="12px" height="9px" viewBox="0 0 12 9" version="1.1" xmlns="http://www.w3.org/2000/svg" xmlns:xlink="http://www.w3.org/1999/xlink" xmlns:sketch="http://www.bohemiancoding.com/sketch/ns">
    <!-- Generator: Sketch 3.3.2 (12043) - http://www.bohemiancoding.com/sketch -->
    <title>icon (arrow right)</title>
    <desc>Created with Sketch.</desc>
    <defs></defs>
    <g stroke="none" stroke-width="1" fill="rgb(0,0,0)" fill-rule="evenodd" sketch:type="MSPage">
        <g sketch:type="MSArtboardGroup" transform="translate(-363.000000, -1968.000000)" fill="rgb(0,0,0)">
            <g sketch:type="MSLayerGroup" transform="translate(100.000000, 1873.000000)">
                <g transform="translate(168.000000, 77.000000)" sketch:type="MSShapeGroup">
                    <path d="M106.5,22.5 C106.5,22.4917973 106.497949,22.4856449 106.493848,22.4815438 C106.489746,22.4774422 106.487696,22.4753914 106.487696,22.4753914 C106.487696,22.4343773 106.479493,22.3974644 106.463088,22.3646531 C106.446682,22.3318417 106.430276,22.303132 106.41387,22.2785234 C106.405668,22.2703207 106.401566,22.2600671 106.401566,22.2477628 C106.401566,22.2354585 106.397465,22.225205 106.389262,22.2170023 C106.381059,22.2170023 106.372856,22.2149515 106.364654,22.2108499 C106.35645,22.2067488 106.348248,22.204698 106.340045,22.204698 C106.340045,22.204698 106.337994,22.2026472 106.333893,22.1985456 C106.329791,22.1944445 106.327741,22.1923937 106.327741,22.1923937 L102.045862,18.2919464 C101.972036,18.2181206 101.881804,18.1812081 101.775168,18.1812081 C101.668531,18.1812081 101.5783,18.2181206 101.504474,18.2919464 C101.430649,18.3657718 101.393736,18.456003 101.393736,18.5626398 C101.393736,18.6692765 101.430649,18.7595078 101.504474,18.8333332 L105.10962,22.106264 L95.893736,22.106264 C95.7870993,22.106264 95.6948172,22.1452273 95.6168903,22.2231542 C95.5389633,22.3010812 95.5,22.3933633 95.5,22.5 C95.5,22.6066367 95.5389633,22.6989188 95.6168903,22.7768458 C95.6948172,22.8547723 95.7870993,22.893736 95.893736,22.893736 L105.10962,22.893736 L101.504474,26.1666668 C101.430649,26.2404922 101.393736,26.3307235 101.393736,26.4373602 C101.393736,26.543997 101.430649,26.6342282 101.504474,26.7080536 C101.5783,26.781879 101.668531,26.8187919 101.775168,26.8187919 C101.881804,26.8187919 101.972036,26.781879 102.045862,26.7080536 L106.352349,22.795302 L106.358501,22.795302 C106.362603,22.795302 106.364654,22.7912004 106.364654,22.7829977 L106.38311,22.7829977 L106.389262,22.7829977 L106.389262,22.7706934 L106.389262,22.7583891 C106.422073,22.7255778 106.446682,22.6886653 106.463088,22.6476508 C106.479493,22.6066367 106.491797,22.5656227 106.5,22.5246086 L106.5,22.5123043 L106.5,22.5 L106.5,22.5 L106.5,22.5 Z"></path>
                </g>
            </g>
        </g>
    </g>
</svg>