<?xml version="1.0" encoding="utf-8"?>
<svg xmlns="http://www.w3.org/2000/svg"
	xmlns:xlink="http://www.w3.org/1999/xlink"
	width="12px" height="15px">
<path fill="rgb(0,0,0)" fill-rule="evenodd" d="M 11.52 13C 11.52 13 0.48 13 0.48 13 0.22 13 0.01 12.78 0.01 12.5 0.01 12.5 0.01 11.01 0.01 11.01 0.01 10.74 0.16 10.35 0.34 10.16 0.34 10.16 2 8.64 2 8 2 7.36 2 3.9 2 3 2 2.69 2.35 2.48 2.6 2.39 2.6 2.39 3.98 1.83 3.98 1.83 4.22 1.73 4.41 1.43 4.4 1.16 4.4 1.16 4.35 0 5.99 0 7.69 0 7.61 1.16 7.61 1.16 7.59 1.43 7.78 1.73 8.02 1.83 8.02 1.83 9.4 2.39 9.4 2.39 9.65 2.48 10 2.72 10 3 10 3.96 10 7.03 10 8 10 8.97 11.66 10.16 11.66 10.16 11.84 10.35 12 10.74 12 11.01 12 11.01 12 12.5 12 12.5 12 12.78 11.78 13 11.52 13ZM 6 13.01C 6.55 13.01 6.99 13.46 6.99 14.01 6.99 14.55 6.55 15 6 15 5.45 15 5.01 14.55 5.01 14.01 5.01 13.46 5.45 13.01 6 13.01Z"/>
</svg>