<?xml version="1.0" encoding="utf-8"?>
<svg xmlns="http://www.w3.org/2000/svg"
	xmlns:xlink="http://www.w3.org/1999/xlink"
	width="11px" height="12px">
<path fill="rgb(0,0,0)" fill-rule="evenodd" d="M 10.09 12C 10.09 12 0.86 12 0.86 12 0.39 12 0 11.61 0 11.13 0 11.13 0 1.86 0 1.86 0 1.38 0.39 0.99 0.86 0.99 0.86 0.99 2.98 0.99 2.98 0.99 2.98 0.99 2.98-0 2.98-0 2.98-0 4.01-0 4.01-0 4.01-0 4.01 0.99 4.01 0.99 4.01 0.99 6.99 0.99 6.99 0.99 6.99 0.99 6.99-0 6.99-0 6.99-0 7.99-0 7.99-0 7.99-0 7.99 0.99 7.99 0.99 7.99 0.99 10.32 0.99 10.32 0.99 10.79 0.99 11 1.2 11 1.68 11 1.68 11 10.97 11 10.97 11 11.45 10.57 12 10.09 12ZM 4 1C 4 1 3 1 3 1 3 1 3 2 3 2 3 2 4 2 4 2 4 2 4 1 4 1ZM 8 1C 8 1 7 1 7 1 7 1 7 2 7 2 7 2 8 2 8 2 8 2 8 1 8 1ZM 10 4.41C 10 4.18 9.81 3.99 9.58 3.99 9.58 3.99 1.42 3.99 1.42 3.99 1.18 3.99 0.99 4.18 0.99 4.41 0.99 4.41 0.99 10.58 0.99 10.58 0.99 10.81 1.18 11 1.42 11 1.42 11 9.58 11 9.58 11 9.81 11 10 10.81 10 10.58 10 10.58 10 4.41 10 4.41Z"/>
</svg>