<?xml version="1.0" encoding="utf-8"?>
<svg xmlns="http://www.w3.org/2000/svg"
	xmlns:xlink="http://www.w3.org/1999/xlink"
	width="20px" height="17px">
<path fill="rgb(0,0,0)" fill-rule="evenodd" d="M 15.86 12.74C 15.86 12.74 14.74 11.59 14.74 11.59 14.74 11.59 17.77 8.5 17.77 8.5 17.77 8.5 14.74 5.41 14.74 5.41 14.74 5.41 15.86 4.26 15.86 4.26 15.86 4.26 20 8.5 20 8.5 20 8.5 15.86 12.74 15.86 12.74ZM 6.45 15.55C 6.45 15.55 12.88 0.48 12.88 0.48 12.88 0.48 13.89 1.05 13.89 1.05 13.89 1.05 7.48 16.14 7.48 16.14 7.48 16.14 6.45 15.55 6.45 15.55ZM 4.14 12.74C 4.14 12.74 0 8.5 0 8.5 0 8.5 4.14 4.26 4.14 4.26 4.14 4.26 5.26 5.41 5.26 5.41 5.26 5.41 2.23 8.5 2.23 8.5 2.23 8.5 5.26 11.59 5.26 11.59 5.26 11.59 4.14 12.74 4.14 12.74Z"/>
</svg>