<?xml version="1.0" encoding="utf-8"?>
<svg xmlns="http://www.w3.org/2000/svg"
	xmlns:xlink="http://www.w3.org/1999/xlink"
	width="16px" height="14px">
<path fill="rgb(0,0,0)" fill-rule="evenodd" d="M 15.32 14.01C 15.32 14.01 0.68 14.01 0.68 14.01 0.3 14.01-0.01 13.71-0.01 13.33-0.01 13.33-0.01 0.67-0.01 0.67-0.01 0.3 0.3-0.01 0.68-0.01 0.68-0.01 15.32-0.01 15.32-0.01 15.7-0.01 16.01 0.3 16.01 0.67 16.01 0.67 16.01 13.33 16.01 13.33 16.01 13.71 15.7 14.01 15.32 14.01ZM 15 1C 15 1 1 1 1 1 1 1 1 13 1 13 1 13 15 13 15 13 15 13 15 1 15 1ZM 9.35 10.93C 9.35 10.93 11.35 8.64 11.35 8.64 11.35 8.64 13.99 12.01 13.99 12.01 13.99 12.01 2 12.01 2 12.01 2 12.01 5.99 6.99 5.99 6.99 5.99 6.99 9.35 10.93 9.35 10.93ZM 11.5 6.99C 10.67 6.99 9.99 6.32 9.99 5.5 9.99 4.67 10.67 4 11.5 4 12.34 4 13.01 4.67 13.01 5.5 13.01 6.32 12.34 6.99 11.5 6.99Z"/>
</svg>