<?xml version="1.0" encoding="UTF-8" standalone="no"?>
<svg width="14px" height="16px" viewBox="0 0 14 16" version="1.1" xmlns="http://www.w3.org/2000/svg" xmlns:xlink="http://www.w3.org/1999/xlink" xmlns:sketch="http://www.bohemiancoding.com/sketch/ns">
    <!-- Generator: Sketch 3.3.2 (12043) - http://www.bohemiancoding.com/sketch -->
    <title>icon (moderate)</title>
    <desc>Created with Sketch.</desc>
    <defs></defs>
    <g stroke="none" stroke-width="1" fill="rgb(0,0,0)" fill-rule="evenodd" sketch:type="MSPage">
        <g sketch:type="MSArtboardGroup" transform="translate(-932.000000, -1762.000000)" fill="rgb(0,0,0)">
            <g sketch:type="MSLayerGroup" transform="translate(100.000000, 1476.000000)">
                <g transform="translate(731.000000, 251.000000)" sketch:type="MSShapeGroup">
                    <path d="M111.5,37 L111.5,36 L110,36 C110,35.7291669 109.903646,35.4947915 109.710938,35.2968752 C109.518229,35.0989584 109.28125,35 109,35 L107,35 C106.729167,35 106.494791,35.0989584 106.296875,35.2968752 C106.098958,35.4947915 106,35.7291669 106,36 L104.5,36 L104.5,37 L101,37 L101,51 L115,51 L115,37 L111.5,37 Z M105.5,37 L107,37 L107,36.5 C107,36.3645835 107.049479,36.2473957 107.148437,36.1484373 C107.247396,36.0494789 107.364583,36 107.5,36 L108.5,36 C108.635417,36 108.752604,36.0494789 108.851563,36.1484373 C108.950521,36.2473957 109,36.3645835 109,36.5 L109,37 L110.5,37 L110.5,39 L105.5,39 L105.5,37 Z M114,50 L102,50 L102,38 L104.5,38 L104.5,40 L111.5,40 L111.5,38 L114,38 L114,50 Z M111.125,42.1406251 L107.4375,46.75 L105.828125,45.1406251 C105.734375,45.0468752 105.619791,45 105.484375,45 C105.348958,45 105.234375,45.0468752 105.140625,45.1406251 C105.046875,45.2343749 105,45.3489584 105,45.4843749 C105,45.6197915 105.046875,45.7343749 105.140625,45.8281248 L107.125,47.8125003 C107.135417,47.8125003 107.140625,47.815104 107.140625,47.8203125 L107.140625,47.8437499 L107.164062,47.8437499 C107.169271,47.8437499 107.171875,47.8489584 107.171875,47.8593749 C107.265625,47.9531248 107.380209,48 107.515625,48 C107.651042,48 107.765625,47.9531248 107.859375,47.8593749 L107.859375,47.8515627 L107.859375,47.8437499 L107.859375,47.8437499 L111.84375,42.8593749 C111.9375,42.7656251 111.984375,42.6484373 111.984375,42.5078123 C111.984375,42.3671877 111.9375,42.2447915 111.84375,42.1406251 C111.739583,42.0468752 111.617188,42 111.476563,42 C111.335938,42 111.21875,42.0468752 111.125,42.1406251 L111.125,42.1406251 Z"></path>
                </g>
            </g>
        </g>
    </g>
</svg>