<?xml version="1.0" encoding="utf-8"?>
<svg xmlns="http://www.w3.org/2000/svg"
	xmlns:xlink="http://www.w3.org/1999/xlink"
	width="16px" height="15px">
<path fill="rgb(0,0,0)" fill-rule="evenodd" d="M 8 1.87C 11.28 1.87 13.99 4.4 13.99 7.41 13.99 10.41 11.28 13.03 8 13.03 7.07 13.03 6.19 12.65 5.41 12.3 4.81 13.03 3.89 13.12 3.48 13.12 3.34 13.12 3.26 13.11 3.26 13.11 3.79 12.23 3.77 11.73 3.65 11.11 2.67 10.14 2 8.84 2 7.41 2 4.4 4.72 1.87 8 1.87M 8 0C 3.59 0 0.01 3.3 0.01 7.35 0.01 9.1 0.67 10.76 1.89 12.09 1.9 12.31 1.83 12.53 1.57 12.96 1.33 13.34 0.31 13.83 0.49 14.24 0.68 14.65 1.06 14.93 1.49 14.98 1.53 14.98 1.66 15 1.86 15 2.45 15 4.44 14.89 5.32 14.27 6.18 14.56 7.08 14.89 8 14.89 12.41 14.89 15.99 11.4 15.99 7.35 15.99 3.3 12.41 0 8 0 8 0 8 0 8 0Z"/>
</svg>