<?xml version="1.0" encoding="utf-8"?>
<svg xmlns="http://www.w3.org/2000/svg"
	xmlns:xlink="http://www.w3.org/1999/xlink"
	width="14px" height="14px">
<path fill="rgb(0,0,0)" fill-rule="evenodd" d="M 13.87 3.33C 13.87 3.33 5.31 12.01 5.31 12.01 5.31 12.01 2 8.79 2 8.79 2 8.79 10.57 0.11 10.57 0.11 10.73-0.05 10.99-0.05 11.15 0.11 11.15 0.11 13.87 2.75 13.87 2.75 14.03 2.91 14.03 3.17 13.87 3.33ZM 0.55 13.95C 0.15 14.11-0.08 13.89 0.04 13.48 0.04 13.48 1.2 10 1.2 10 1.2 10 4.01 12.79 4.01 12.79 4.01 12.79 0.55 13.95 0.55 13.95Z"/>
</svg>