<?xml version="1.0" encoding="utf-8"?>
<svg xmlns="http://www.w3.org/2000/svg"
	xmlns:xlink="http://www.w3.org/1999/xlink"
	width="15px" height="13px">
<path fill="rgb(0,0,0)" fill-rule="evenodd" d="M 1.5 2.34C 2.47 1.19 3.84 0.39 5.34 0.12 6.85-0.16 8.45 0.11 9.8 0.85 11.17 1.58 12.26 2.81 12.85 4.24 13.14 4.95 13.31 5.72 13.35 6.49 13.37 6.88 13.35 7.27 13.3 7.65 13.28 7.85 13.25 8.03 13.2 8.23 13.16 8.45 13.11 8.6 13.06 8.77 13.06 8.77 13.03 8.76 13.03 8.76 13.03 8.76 15 9.37 15 9.37 15 9.37 11.05 11.66 11.05 11.66 11.05 11.66 9.8 7.21 9.8 7.21 9.8 7.21 11.44 8.23 11.44 8.23 11.82 7.1 11.78 5.91 11.37 4.8 10.95 3.69 10.13 2.73 9.09 2.12 8.04 1.52 6.79 1.27 5.59 1.46 4.39 1.64 3.26 2.25 2.46 3.16 1.65 4.06 1.17 5.26 1.14 6.49 1.1 7.72 1.5 8.97 2.27 9.96 3.03 10.96 4.15 11.68 5.39 11.98 6.62 12.28 7.96 12.14 9.11 11.59 9.11 11.59 9.47 12.3 9.47 12.3 8.18 12.97 6.65 13.18 5.2 12.87 3.75 12.56 2.4 11.75 1.47 10.59 0.52 9.43-0.01 7.95-0 6.46-0 4.97 0.53 3.49 1.5 2.34Z"/>
</svg>