<?xml version="1.0" encoding="utf-8"?>
<svg xmlns="http://www.w3.org/2000/svg"
	xmlns:xlink="http://www.w3.org/1999/xlink"
	width="10px" height="18px">
<path fill="rgb(0,0,0)" fill-rule="evenodd" d="M 8.31-0C 8.31-0 0.69-0 0.69-0 0.31-0-0 0.31-0 0.7-0 0.7-0 18-0 18-0 18 5 14 5 14 5 14 10 18 10 18 10 18 10 0.7 10 0.7 10 0.31 8.69-0 8.31-0ZM 7.47 11.01C 7.47 11.01 5 9.16 5 9.16 5 9.16 2.53 11.01 2.53 11.01 2.53 11.01 3.47 8.02 3.47 8.02 3.47 8.02 1 6.16 1 6.16 1 6.16 4.06 6.16 4.06 6.16 4.06 6.16 5 2.98 5 2.98 5 2.98 5.94 6.16 5.94 6.16 5.94 6.16 8.99 6.16 8.99 6.16 8.99 6.16 6.52 8.02 6.52 8.02 6.52 8.02 7.47 11.01 7.47 11.01Z"/>
</svg>