<?xml version="1.0" encoding="utf-8"?>
<svg xmlns="http://www.w3.org/2000/svg"
	xmlns:xlink="http://www.w3.org/1999/xlink"
	width="13px" height="14px">
<path fill="rgb(0,0,0)" fill-rule="evenodd" d="M 12.5 13.59C 12.24 13.84 11.92 13.98 11.59 14 11.14 14.04 10.67 13.88 10.34 13.51 10.34 13.51 7.58 10.51 7.58 10.51 7.56 10.48 7.54 10.46 7.52 10.43 5.69 11.23 3.48 10.96 1.91 9.59-0.35 7.65-0.62 4.2 1.29 1.91 1.47 1.7 1.66 1.5 1.87 1.32 3.85-0.43 6.85-0.45 8.85 1.28 9.94 2.23 10.6 3.55 10.72 5 10.82 6.22 10.51 7.41 9.86 8.42 9.86 8.42 12.58 11.39 12.58 11.39 13.15 12.02 13.12 13 12.5 13.59ZM 7.46 2.95C 6.26 1.91 4.46 1.92 3.27 2.96 3.15 3.07 3.03 3.19 2.92 3.32 1.78 4.7 1.94 6.76 3.29 7.93 4.49 8.97 6.29 8.96 7.48 7.91 7.6 7.8 7.72 7.68 7.83 7.56 8.38 6.89 8.65 6.04 8.58 5.17 8.51 4.3 8.11 3.51 7.46 2.95Z"/>
</svg>