<?xml version="1.0" encoding="utf-8"?>
<svg xmlns="http://www.w3.org/2000/svg"
	xmlns:xlink="http://www.w3.org/1999/xlink"
	width="14px" height="19px">
<path fill="rgb(0,0,0)" fill-rule="evenodd" d="M 12.77 19C 12.77 19 1.23 19 1.23 19 0.55 19 0 18.44 0 17.75 0 17.75 0 8.25 0 8.25 0 7.56 0.55 7 1.23 7 1.23 7 4.01 7 4.01 7 4.01 7 4.01 9 4.01 9 4.01 9 2.53 9 2.53 9 2.24 9 2.01 9.23 2.01 9.52 2.01 9.52 2.01 16.48 2.01 16.48 2.01 16.77 2.24 17 2.53 17 2.53 17 11.47 17 11.47 17 11.76 17 11.99 16.77 11.99 16.48 11.99 16.48 11.99 9.52 11.99 9.52 11.99 9.23 11.76 9 11.47 9 11.47 9 9.99 9 9.99 9 9.99 9 9.99 7 9.99 7 9.99 7 12.77 7 12.77 7 13.45 7 14 7.56 14 8.25 14 8.25 14 17.75 14 17.75 14 18.44 13.45 19 12.77 19ZM 9.82 4.77C 9.82 4.77 7.98 2.97 7.98 2.97 7.98 2.97 7.98 13.37 7.98 13.37 7.98 13.72 7.54 14 7 14 6.46 14 6.02 13.72 6.02 13.37 6.02 13.37 6.02 2.97 6.02 2.97 6.02 2.97 4.18 4.77 4.18 4.77 3.91 5.06 3.47 5.06 3.2 4.77 2.93 4.48 2.93 4 3.2 3.71 3.2 3.71 7 0 7 0 7 0 10.8 3.71 10.8 3.71 11.07 4 11.07 4.48 10.8 4.77 10.53 5.06 10.09 5.06 9.82 4.77Z"/>
</svg>