<?xml version="1.0" encoding="utf-8"?>
<svg xmlns="http://www.w3.org/2000/svg" viewBox="0 0 100 100">
    <rect x="48.5" y="44.5" width="3" height="11" rx="2" ry="2" fill="#0d0d0d" transform="rotate(0 50 50) translate(0 -20)"></rect>
    <rect x="48.5" y="44.5" width="3" height="11" rx="2" ry="2" fill="#bfbfbf" transform="rotate(25.714285714285715 50 50) translate(0 -20)"></rect>
    <rect x="48.5" y="44.5" width="3" height="11" rx="2" ry="2" fill="#000000" transform="rotate(51.42857142857143 50 50) translate(0 -20)"></rect>
    <rect x="48.5" y="44.5" width="3" height="11" rx="2" ry="2" fill="#000000" transform="rotate(77.14285714285714 50 50) translate(0 -20)"></rect>
    <rect x="48.5" y="44.5" width="3" height="11" rx="2" ry="2" fill="#000000" transform="rotate(102.85714285714286 50 50) translate(0 -20)"></rect>
    <rect x="48.5" y="44.5" width="3" height="11" rx="2" ry="2" fill="#000000" transform="rotate(128.57142857142858 50 50) translate(0 -20)"></rect>
    <rect x="48.5" y="44.5" width="3" height="11" rx="2" ry="2" fill="#000000" transform="rotate(154.28571428571428 50 50) translate(0 -20)"></rect>
    <rect x="48.5" y="44.5" width="3" height="11" rx="2" ry="2" fill="#000000" transform="rotate(180 50 50) translate(0 -20)"></rect>
    <rect x="48.5" y="44.5" width="3" height="11" rx="2" ry="2" fill="#000000" transform="rotate(205.71428571428572 50 50) translate(0 -20)"></rect>
    <rect x="48.5" y="44.5" width="3" height="11" rx="2" ry="2" fill="#000000" transform="rotate(231.42857142857142 50 50) translate(0 -20)"></rect>
    <rect x="48.5" y="44.5" width="3" height="11" rx="2" ry="2" fill="#000000" transform="rotate(257.14285714285717 50 50) translate(0 -20)"></rect>
    <rect x="48.5" y="44.5" width="3" height="11" rx="2" ry="2" fill="#000000" transform="rotate(282.85714285714283 50 50) translate(0 -20)"></rect>
    <rect x="48.5" y="44.5" width="3" height="11" rx="2" ry="2" fill="#000000" transform="rotate(308.57142857142856 50 50) translate(0 -20)"></rect>
    <rect x="48.5" y="44.5" width="3" height="11" rx="2" ry="2" fill="#000000" transform="rotate(334.2857142857143 50 50) translate(0 -20)"></rect>
</svg>