<?xml version="1.0" encoding="utf-8"?>
<svg xmlns="http://www.w3.org/2000/svg"
	xmlns:xlink="http://www.w3.org/1999/xlink"
	width="11px" height="14px">
<path fill="rgb(0,0,0)" fill-rule="evenodd" d="M 10.28 3.08C 10.28 3.08 10 3 10 3 10 3 10 13 10 13 10 13.98 8.95 14 8 14 8 14 3 14 3 14 2.05 14 1 13.98 1 13 1 13 1 3 1 3 1 3 0.72 3.08 0.72 3.08 0.28 3.08-0 2.62-0 2.16-0 1.71 0.56 2 1 2 1 2 3 2 3 2 3 2 3 1 3 1 3 0.19 3.21 0 4 0 4 0 7 0 7 0 7.79 0 8 0.19 8 1 8 1 8 2 8 2 8 2 10 2 10 2 10.44 2 11.01 1.71 11.01 2.16 11.01 2.62 10.72 3.08 10.28 3.08ZM 5 11.68C 5 11.95 5.16 12 5.5 12 5.83 12 5.98 11.95 5.98 11.68 5.98 11.68 5.98 5.34 5.98 5.34 5.98 5.08 5.83 5.01 5.5 5.01 5.16 5.01 5 5.08 5 5.34 5 5.34 5 11.68 5 11.68ZM 3.5 5C 3.16 5 3 5.07 3 5.34 3 5.34 3 11.69 3 11.69 3 11.96 3.16 12 3.5 12 3.83 12 3.99 11.96 3.99 11.69 3.99 11.69 3.99 5.34 3.99 5.34 3.99 5.07 3.83 5 3.5 5ZM 4 1C 4 1 4 2 4 2 4 2 7 2 7 2 7 2 7 1 7 1 7 1 4 1 4 1ZM 7.98 5.34C 7.98 5.07 7.83 5 7.5 5 7.16 5 7 5.07 7 5.34 7 5.34 7 11.69 7 11.69 7 11.96 7.16 12 7.5 12 7.83 12 7.98 11.96 7.98 11.69 7.98 11.69 7.98 5.34 7.98 5.34Z"/>
</svg>