<svg width="0" height="0" style="position:absolute"><symbol viewBox="0 0 18 16" id="svg-activity"><path fill-rule="evenodd" d="M8.73 16h-.02c-.29-.01-.53-.24-.58-.54L6.45 4.27 4.88 9.33c-.09.26-.32.43-.58.43H.61c-.34 0-.61-.51-.61-.87 0-.35.27-.75.61-.75h3.26L6.09.43c.1-.28.36-.46.63-.43.28.03.51.25.55.54l1.56 11.37 1.65-8.63c.06-.29.31-.5.59-.5h.01c.29 0 .53.22.59.52l1.37 6.97.45-1.67c.08-.27.32-.46.59-.46h3.31c.34 0 .61.45.61.81 0 .36-.27.87-.61.87h-2.85l-1.02 3.14c-.08.29-.34.5-.61.47-.28-.01-.52-.23-.57-.52l-1.19-6.04-1.82 8.63c-.06.29-.31.5-.6.5z"/></symbol><symbol viewBox="0 0 10 6" id="svg-arrow-down"><title>icon (arrow down)</title><path d="M9.883.117C9.805.04 9.71 0 9.603 0c-.11 0-.202.04-.28.117L5 4.83.677.118C.6.04.507 0 .397 0 .29 0 .195.04.117.117.04.195 0 .29 0 .397c0 .11.04.202.117.28l.716.788c.478.525 1 1.102 1.57 1.732.568.63 1.093 1.204 1.575 1.725.482.52.723.785.723.794.044.044.092.074.144.09.052.02.104.027.156.027.052 0 .104-.008.156-.026.052-.017.1-.047.143-.09 0-.01.238-.274.716-.795.477-.52 1.002-1.096 1.575-1.725l1.577-1.732.716-.788C9.96.6 10 .507 10 .397c0-.108-.04-.202-.117-.28z" fill-rule="evenodd"/></symbol><symbol viewBox="0 0 8 5" id="svg-arrow-down-1"><path fill-rule="evenodd" d="M0 0h8L4 5 0 0z"/></symbol><symbol viewBox="0 0 9 6" id="svg-arrow-down-2"><path fill-rule="evenodd" d="M0 1.49L4.5 6 9 1.49 7.53 0 4.5 3.03 1.47 0 0 1.49z"/></symbol><symbol viewBox="0 0 16 25" id="svg-arrow-left"><path fill-rule="evenodd" d="M12.56 25.01L16 21.57 6.89 12.5 16 3.43 12.56-.01 0 12.51l12.56 12.5z"/></symbol><symbol viewBox="0 0 12 9" id="svg-arrow-right"><title>icon (arrow right)</title><path d="M11.5 4.5c0-.008-.002-.014-.006-.018l-.006-.007c0-.04-.01-.078-.025-.11-.016-.033-.033-.062-.05-.086-.007-.01-.01-.02-.01-.032 0-.013-.006-.023-.014-.03-.01 0-.017-.003-.025-.007-.01-.003-.017-.005-.025-.005l-.006-.006-.006-.008-4.282-3.9c-.074-.074-.164-.11-.27-.11-.107 0-.198.036-.272.11-.073.074-.11.164-.11.27 0 .107.037.198.11.27l3.606 3.274H.894c-.107 0-.2.04-.277.117C.54 4.3.5 4.393.5 4.5c0 .107.04.2.117.277.078.078.17.117.277.117h9.216L6.504 8.167c-.073.073-.11.164-.11.27 0 .107.037.197.11.27.074.075.165.112.27.112.108 0 .198-.038.272-.112l4.306-3.913h.007c.003 0 .005-.004.005-.012h.024V4.76c.032-.032.057-.07.073-.11.016-.04.03-.082.037-.123V4.5z" fill-rule="evenodd"/></symbol><symbol viewBox="0 0 10 6" id="svg-arrow-up"><title>icon (arrow)</title><path d="M.117 5.716c.078.078.172.117.28.117.11 0 .202-.04.28-.117L5 1.003l4.323 4.713c.078.078.17.117.28.117.108 0 .202-.04.28-.117.078-.078.117-.17.117-.28 0-.108-.04-.202-.117-.28 0 0-.24-.262-.716-.788-.478-.525-1-1.102-1.57-1.73C7.03 2.007 6.505 1.43 6.023.91 5.54.39 5.3.127 5.3.118c-.044-.043-.092-.074-.144-.09C5.104.008 5.052 0 5 0c-.052 0-.104.01-.156.026-.052.017-.1.048-.143.09 0 .01-.238.275-.716.795-.477.522-1.002 1.097-1.575 1.727L.832 4.367l-.716.79c-.078.077-.117.17-.117.28 0 .108.04.2.117.28z" fill-rule="evenodd"/></symbol><symbol viewBox="0 0 8 14" id="svg-arrow-up-down-1"><path fill-rule="evenodd" d="M4 0l4 5H0l4-5zm0 14L0 9h8l-4 5z"/></symbol><symbol viewBox="0 0 13 16" id="svg-article"><title>icon-article</title><path d="M9.5 11h-6c-.135 0-.253.05-.352.148-.1.1-.148.217-.148.352 0 .135.05.253.148.352.1.1.217.148.352.148h6c.135 0 .253-.05.352-.148.1-.1.148-.217.148-.352 0-.135-.05-.253-.148-.352-.1-.1-.217-.148-.352-.148zM3 8.5c0 .135.05.253.148.352.1.1.217.148.352.148h6c.135 0 .253-.05.352-.148.1-.1.148-.217.148-.352 0-.135-.05-.253-.148-.352-.1-.1-.217-.148-.352-.148h-6c-.135 0-.253.05-.352.148-.1.1-.148.217-.148.352zM9 0H.5C.365 0 .247.05.148.148.048.248 0 .365 0 .5v15c0 .135.05.253.148.352.1.1.217.148.352.148h12c.135 0 .253-.05.352-.148.1-.1.148-.217.148-.352V4L9 0zm0 1.813L11.187 4H9V1.813zM12 14.5c0 .135-.05.253-.148.352-.1.1-.217.148-.352.148h-10c-.135 0-.253-.05-.352-.148-.1-.1-.148-.217-.148-.352v-13c0-.135.05-.253.148-.352.1-.1.217-.148.352-.148H8v4h4v9.5z" fill-rule="evenodd"/></symbol><symbol viewBox="0 0 16 16" id="svg-audio"><title>icon-audio</title><path d="M1.375 4c-.372 0-.695.132-.967.396S0 4.972 0 5.333v5.334c0 .375.136.69.408.948.272.257.595.385.967.385h2.75L11 16V0L8.19 1.635 4.125 4h-2.75zM10 14l-5.778-3.333H2.056c-.196 0-.365-.066-.508-.198-.143-.133-.215-.29-.215-.47V6c0-.18.072-.337.215-.47.143-.13.312-.197.508-.197h2.166L10 2v12zm2-10.604V4.73c.764.152 1.4.534 1.906 1.145.507.61.76 1.32.76 2.125 0 .806-.253 1.514-.76 2.125-.507.61-1.142.993-1.906 1.146v1.334c.57-.083 1.097-.26 1.583-.53.486-.272.907-.61 1.26-1.01.355-.404.636-.87.845-1.397C15.896 9.14 16 8.583 16 8s-.104-1.135-.312-1.656c-.21-.52-.49-.986-.844-1.396-.354-.41-.775-.75-1.26-1.02-.487-.272-1.015-.45-1.584-.532z" fill-rule="evenodd"/></symbol><symbol viewBox="0 0 37 37" id="svg-badge"><path fill-rule="evenodd" d="M32.04 32.04L27.1 33.4 23.46 37l-4.96-1.29L13.54 37 9.9 33.4l-4.94-1.36L3.6 27.1 0 23.46l1.3-4.96L0 13.54 3.6 9.9l1.36-4.94L9.9 3.6 13.54 0l4.96 1.29L23.46 0l3.64 3.6 4.94 1.36L33.4 9.9l3.6 3.64-1.3 4.96 1.3 4.96-3.6 3.64-1.36 4.94z"/></symbol><symbol viewBox="0 0 12 15" id="svg-bell"><path fill-rule="evenodd" d="M11.52 13H.48c-.26 0-.47-.22-.47-.5v-1.49c0-.27.15-.66.33-.85C.34 10.16 2 8.64 2 8V3c0-.31.35-.52.6-.61l1.38-.56c.24-.1.43-.4.42-.67 0 0-.05-1.16 1.59-1.16 1.7 0 1.62 1.16 1.62 1.16-.02.27.17.57.41.67l1.38.56c.25.09.6.33.6.61v5c0 .97 1.66 2.16 1.66 2.16.18.19.34.58.34.85v1.49c0 .28-.22.5-.48.5zM6 13.01c.55 0 .99.45.99 1 0 .54-.44.99-.99.99s-.99-.45-.99-.99c0-.55.44-1 .99-1z"/></symbol><symbol viewBox="0 0 18 18" id="svg-browse"><path fill-rule="evenodd" d="M15.37 15.36C13.61 17.12 11.3 18 9 18c-2.31 0-4.62-.88-6.38-2.64-3.52-3.51-3.52-9.21 0-12.72C4.38.88 6.69 0 9 0c2.3 0 4.61.88 6.37 2.64 3.52 3.51 3.52 9.21 0 12.72zM13.95 4.05C12.63 2.73 10.87 2 9 2c-1.88 0-3.64.73-4.96 2.05C2.72 5.37 1.99 7.13 1.99 9s.73 3.63 2.05 4.95C5.36 15.27 7.12 16 9 16c1.87 0 3.63-.73 4.95-2.05C15.28 12.63 16 10.87 16 9s-.72-3.63-2.05-4.95zm-3.71 6.18c-.01.01-.03.03-.05.04l-5.47 3.17c-.02.01-.04.01-.06.01-.03 0-.06-.01-.09-.03-.04-.04-.05-.1-.02-.15L7.73 7.8c.01-.01.01-.02.01-.02.02-.02.04-.04.06-.05l5.47-3.17c.02-.01.04-.01.06-.01.03 0 .06.01.09.03.04.04.05.1.02.15l-3.18 5.47c0 .01-.01.02-.02.03zM8.86 7.99l1.15 1.14 1.59-2.74-2.74 1.6z"/></symbol><symbol viewBox="0 0 15 16" id="svg-calendar"><title>icon (calendar)</title><path d="M13 11h-3v3h3v-3zm-1 2h-1v-1h1v1zm1-6h-3v3h3V7zm-1 2h-1V8h1v1zm2.5-8H11V0h-1v1H5V0H4v1H1c-.27 0-.505.1-.703.297C.1 1.495 0 1.73 0 2v13c0 .28.1.518.297.71.198.194.432.29.703.29h13c.28 0 .518-.096.71-.29.194-.192.29-.43.29-.71V2c0-.27-.013-.505-.04-.703C14.936 1.1 14.78 1 14.5 1zM14 14.5c0 .135-.05.253-.148.352-.1.1-.217.148-.352.148h-12c-.135 0-.253-.05-.352-.148-.1-.1-.148-.217-.148-.352V5h13v9.5zM14 4H1V2.5c0-.135.05-.253.148-.352.1-.1.217-.148.352-.148H4v1h1V2h5v1h1V2h2.5c.135 0 .253.05.352.148.1.1.148.217.148.352V4zm-9 7H2v3h3v-3zm-1 2H3v-1h1v1zm5-2H6v3h3v-3zm-1 2H7v-1h1v1zM5 7H2v3h3V7zM4 9H3V8h1v1zm5-2H6v3h3V7zM8 9H7V8h1v1z" fill-rule="evenodd"/></symbol><symbol viewBox="0 0 14 10" id="svg-checkmark"><title>icon (checkmark)</title><path d="M13.877.123C13.794.04 13.694 0 13.575 0c-.12 0-.224.04-.315.123L4.8 8.583.74 4.54c-.082-.084-.185-.125-.308-.125s-.226.04-.31.124c-.08.08-.122.184-.122.307 0 .124.04.226.123.31L4.47 9.5v.007c0 .004.005.006.014.006.082.082.183.124.302.124.118 0 .223-.042.315-.124L13.878.74C13.96.65 14 .544 14 .425c0-.12-.04-.22-.123-.302z" fill-rule="evenodd"/></symbol><symbol viewBox="0 0 16 16" id="svg-circle-add"><path fill-rule="evenodd" d="M8 0C3.58 0 0 3.58 0 8s3.58 8 8 8 8-3.58 8-8-3.58-8-8-8zm3.59 8.94H8.93v2.64c0 .52-.41.94-.93.94s-.94-.42-.94-.94V8.94H4.42c-.52 0-.94-.42-.94-.94s.42-.93.94-.93h2.64V4.41c0-.51.42-.93.94-.93s.93.42.93.93v2.66h2.66c.51 0 .93.41.93.93s-.42.94-.93.94z"/></symbol><symbol viewBox="0 0 16 16" id="svg-circle-delete"><path fill-rule="evenodd" d="M8 0C3.58 0 0 3.59 0 8c0 4.42 3.58 8 8 8 4.41 0 8-3.58 8-8 0-4.41-3.59-8-8-8zm3.58 8.94H4.42c-.52 0-.94-.42-.94-.94 0-.51.42-.93.94-.93h7.16c.52 0 .94.42.94.93 0 .52-.42.94-.94.94z"/></symbol><symbol viewBox="0 0 16 16" id="svg-circle-x"><path fill-rule="evenodd" d="M13.66 13.66c3.12-3.13 3.12-8.19 0-11.32-3.13-3.12-8.19-3.12-11.32 0-3.12 3.13-3.12 8.19 0 11.32 3.13 3.12 8.19 3.12 11.32 0zM4.8 9.87L6.68 8 4.81 6.13c-.37-.37-.37-.96-.01-1.33.37-.36.96-.36 1.33 0L8 6.68 9.87 4.8c.37-.36.96-.36 1.32 0 .37.37.37.96.01 1.33L9.32 8l1.88 1.87c.36.37.36.96 0 1.33-.37.36-.96.36-1.33 0L8 9.32 6.13 11.2c-.37.36-.96.36-1.33 0-.36-.37-.36-.96 0-1.33z"/></symbol><symbol viewBox="0 0 15 15" id="svg-close"><title>icon (close)</title><path d="M8.253 7.5L14.85.904c.1-.112.15-.24.15-.385 0-.146-.05-.27-.15-.37-.1-.1-.224-.15-.37-.15-.144 0-.267.05-.367.15L7.5 6.764.887.15C.787.05.664 0 .52 0 .373 0 .25.05.15.15.05.25 0 .375 0 .52 0 .663.05.79.15.903L6.748 7.5.15 14.113c-.1.1-.15.223-.15.368 0 .146.05.27.15.37.1.1.224.15.37.15.144 0 .272-.05.384-.15L7.5 8.252l6.596 6.596c.112.1.24.15.385.15.146 0 .27-.05.37-.15.1-.1.15-.224.15-.37 0-.144-.05-.267-.15-.367L8.252 7.5z" fill-rule="evenodd"/></symbol><symbol viewBox="0 0 18 16" id="svg-embed"><title>icon (embed)</title><path d="M4.29 3.477c-.118-.094-.262-.14-.432-.14-.17 0-.313.046-.43.14L.176 7.08C.06 7.162 0 7.268 0 7.397c0 .13.06.24.176.334l.545.563c.34.352.71.736 1.108 1.152.4.416.762.796 1.09 1.142l.492.52c.117.092.264.14.44.14.175 0 .322-.048.44-.14.116-.095.175-.206.175-.335 0-.13-.06-.235-.176-.317L1.423 7.31 4.29 4.144c.116-.094.175-.205.175-.334 0-.128-.06-.24-.176-.333zm13.534 3.375c-.023-.012-.208-.194-.553-.545-.345-.352-.717-.738-1.116-1.16-.398-.422-.764-.806-1.098-1.152l-.5-.518c-.118-.094-.265-.14-.44-.14-.177 0-.323.046-.44.14-.117.094-.176.205-.176.334 0 .13.06.24.176.335L16.54 7.29l-2.864 3.165c-.117.082-.176.188-.176.317 0 .13.06.24.176.334.117.093.263.14.44.14.175 0 .322-.047.44-.14l3.268-3.586c.117-.094.176-.205.176-.334 0-.13-.06-.24-.176-.334zM13.2.067c-.128-.07-.268-.085-.42-.044-.153.04-.27.126-.352.255L4.553 14.903c-.082.14-.103.284-.062.43.042.147.133.26.274.343.13.07.27.088.422.053.152-.036.263-.124.334-.265L13.412.84c.082-.13.103-.27.062-.422-.04-.152-.132-.27-.273-.35z" fill-rule="evenodd"/></symbol><symbol viewBox="0 0 13 16" id="svg-fist"><path fill-rule="evenodd" d="M12.94 4.7l-1.01 2.43c-.18.45-.68.67-1.1.49-.42-.19-.6-.7-.42-1.16l1.01-2.43c.19-.46.68-.67 1.1-.49.42.19.61.7.42 1.16zM9.93 6.25c-.19.45-.68.67-1.1.49-.42-.19-.61-.71-.42-1.16l1.35-3.26c.19-.46.68-.68 1.1-.49.42.18.61.7.42 1.15L9.93 6.25zm-2-.88c-.13.32-.42.52-.73.55-.28-.26-.56-.46-.83-.61.53-.04.94-.25 1.24-.47.56-.41.81-.95.84-1.01l.19-.42-.4-.18-1.04-.45.56-1.35c.19-.45.68-.67 1.1-.48.42.18.61.7.42 1.15L7.93 5.37zM6.72 2.56L5.2 1.9 5.76.55c.18-.45.68-.67 1.1-.48.42.18.6.7.42 1.15l-.56 1.34zM5.06 4.61l-.34.59s1.95.19 2.99 2.08c0 0 2.52.17 3.82 1.65 0 0-3.58 4.67-3.63 4.76-.66 1.15.66 1.94.66 1.94s-2.5.81-4.61 0C1.79 14.81 0 13.04 0 13.04s1.77-.22 1.97-.65c.56-1.15 1.26-2.71 1.26-2.71l-1.4-4.97 2.55-2.69 3.69 1.63s-.85 1.89-3.01.96z"/></symbol><symbol viewBox="0 0 18 15" id="svg-flag"><path fill-rule="evenodd" d="M11.99 9.56l1.05-2.8c2.84 3.48 4.96 3.39 4.96 3.39-2.67 1.03-6.01-.59-6.01-.59zM4.51 7.24L6.72.79c2.38-.45 6.02 4.44 6.02 4.44l-1.09 3.02C7.71 6.03 4.51 7.24 4.51 7.24zm-3.43 7.38c-.08.24-.3.38-.52.38-.07 0-.13-.01-.19-.03-.29-.11-.44-.44-.34-.74L4.94.38c.1-.3.42-.46.71-.35.29.11.44.44.33.74l-4.9 13.85z"/></symbol><symbol viewBox="0 0 16 16" id="svg-home"><path fill-rule="evenodd" d="M15.69 7.65c-.29.31-.78.31-1.08 0l-.08-.08c-.01-.01-.03-.02-.05-.04L8.36 2.14c-.19-.19-.5-.19-.69 0L1.44 7.52c-.07.07-.15.12-.23.17-.01 0-.01.01-.02.01-.02.01-.03.02-.04.02-.18.1-.39.12-.58.07C.44 7.76.32 7.7.22 7.6c-.32-.35-.28-.75.05-1.09L7.41.24c.32-.32.89-.32 1.21 0l7.22 6.39c.3.31.15.72-.15 1.02zM8.34 4.13L14 9v7h-4v-5c0-.27-.73-1-1-1H7c-.27 0-1 .73-1 1v5H2V9l5.63-4.87c.2-.19.51-.19.71 0z"/></symbol><symbol viewBox="0 0 16 16" id="svg-image"><title>icon-image</title><path d="M15 0H1C.73 0 .495.1.297.297.1.495 0 .73 0 1v14c0 .28.1.518.297.71.198.194.432.29.703.29h14c.28 0 .518-.096.71-.29.194-.192.29-.43.29-.71V1c0-.27-.096-.505-.29-.703C15.52.1 15.28 0 15 0zM1.5 15c-.135 0-.253-.05-.352-.148-.1-.1-.148-.217-.148-.352v-1.687l4.39-3.58L10.376 15H1.5zm13.5-.5c0 .135-.05.253-.148.352-.1.1-.217.148-.352.148h-2.72L8.08 10.703l4.375-3.578 2.53 2.734H15v4.64zm0-6.172l-2.03-2.203c-.064-.052-.134-.086-.212-.102-.078-.015-.16-.018-.242-.007-.073-.01-.146-.006-.22.015-.072.022-.14.053-.202.095L7.422 9.953 5.875 8.156c-.062-.062-.13-.107-.203-.133-.073-.026-.146-.033-.22-.023-.02 0-.04.003-.06.008-.022.005-.043.013-.064.023h-.015c-.01 0-.02.006-.032.017l-.132.03c-.046.012-.09.032-.132.064L1 11.423V1.5c0-.135.05-.253.148-.352.1-.1.217-.148.352-.148h13c.135 0 .253.05.352.148.1.1.148.217.148.352v6.828zM4 2c-.552 0-1.023.195-1.414.586C2.196 2.976 2 3.448 2 4c0 .552.195 1.023.586 1.414.39.39.862.586 1.414.586.552 0 1.023-.195 1.414-.586C5.804 5.024 6 4.552 6 4c0-.552-.195-1.023-.586-1.414C5.024 2.196 4.552 2 4 2zm0 3c-.27 0-.505-.096-.703-.29C3.1 4.52 3 4.28 3 4c0-.27.1-.505.297-.703C3.495 3.1 3.73 3 4 3c.27 0 .505.1.703.297C4.9 3.495 5 3.73 5 4c0 .28-.1.518-.297.71C4.505 4.905 4.27 5 4 5z" fill-rule="evenodd"/></symbol><symbol viewBox="0 0 16 16" id="svg-link"><title>icon-link</title><path d="M6.562 13.063L5.11 14.516c-.303.302-.667.453-1.094.453-.428 0-.787-.152-1.08-.454l-1.452-1.453c-.302-.292-.453-.65-.453-1.08 0-.426.152-.79.454-1.092l4.72-4.718c.3-.302.663-.453 1.085-.453.42 0 .783.15 1.085.452L9.47 7.266c.05.04.108.075.17.1.063.027.125.04.188.04.073 0 .14-.013.203-.04.064-.025.116-.06.157-.1.104-.104.157-.227.157-.367 0-.142-.053-.264-.157-.37L9.11 5.44c-.5-.5-1.108-.75-1.82-.75-.715 0-1.32.25-1.82.75L.75 10.156c-.5.51-.75 1.12-.75 1.828 0 .71.25 1.313.75 1.813l1.453 1.453c.5.5 1.104.75 1.813.75.708 0 1.317-.25 1.828-.75l.36-.36 1.077-1.093c.105-.104.157-.227.157-.367 0-.14-.052-.263-.156-.367-.093-.094-.21-.14-.35-.14-.14 0-.263.046-.368.14zM15.218 2.11L13.89.782c-.51-.51-1.132-.77-1.867-.782-.734-.01-1.346.235-1.836.735L8.734 2.172c-.094.104-.14.227-.14.367 0 .14.046.262.14.367.052.04.11.075.172.1.063.027.13.04.203.04.062 0 .124-.013.187-.04.062-.025.12-.06.172-.1l1.436-1.454c.302-.29.677-.432 1.125-.42.45.01.824.165 1.126.467L14.5 2.844c.302.302.458.68.468 1.133.01.453-.13.825-.42 1.117L10 9.64c-.313.303-.722.467-1.227.493-.505.026-.898-.102-1.18-.383l-.61-.625c-.01 0-.017-.008-.022-.023-.004-.016-.012-.03-.023-.04l-.015.016-.36-.36c-.104-.103-.226-.155-.367-.155-.14 0-.258.052-.35.156-.106.093-.158.21-.158.35 0 .14.052.263.157.368l1.078 1.093c.02.012.04.022.054.033.016.01.03.02.04.03.48.397 1.06.587 1.742.57.682-.014 1.278-.23 1.79-.647l.014.015c.01-.02.024-.04.04-.06.015-.022.033-.038.054-.048l.03-.03.033-.033 4.545-4.547c.5-.49.745-1.102.735-1.836-.01-.735-.27-1.357-.782-1.867z" fill-rule="evenodd"/></symbol><symbol viewBox="0 0 48 48" id="svg-magnifier"><path d="M28.5 18H21v-7.5c0-.406-.148-.758-.445-1.055C20.258 9.148 19.905 9 19.5 9c-.406 0-.758.148-1.055.445-.297.297-.445.65-.445 1.055V18h-7.5c-.406 0-.758.148-1.055.445-.297.297-.445.65-.445 1.055 0 .406.148.758.445 1.055.297.297.65.445 1.055.445H18v7.5c0 .406.148.758.445 1.055.297.297.65.445 1.055.445.406 0 .758-.148 1.055-.445.297-.297.445-.65.445-1.055V21h7.5c.406 0 .758-.148 1.055-.445.297-.297.445-.65.445-1.055 0-.406-.148-.758-.445-1.055-.297-.297-.65-.445-1.055-.445zm19.078 27.562l-13.36-13.36c1.47-1.718 2.634-3.655 3.493-5.81.86-2.158 1.29-4.454 1.29-6.892 0-2.688-.508-5.22-1.523-7.594-1.016-2.375-2.407-4.445-4.172-6.21-1.766-1.766-3.836-3.157-6.21-4.173C24.718.508 22.187 0 19.5 0c-2.688 0-5.22.508-7.594 1.523C9.53 2.54 7.46 3.93 5.696 5.695 3.93 7.46 2.538 9.53 1.522 11.905.508 14.282 0 16.813 0 19.5c0 2.688.508 5.22 1.523 7.594 1.016 2.375 2.407 4.445 4.172 6.21 1.766 1.766 3.836 3.157 6.21 4.173C14.282 38.492 16.813 39 19.5 39c2.438 0 4.734-.43 6.89-1.29 2.157-.858 4.094-2.022 5.813-3.49l13.36 13.358c.28.28.617.422 1.007.422.39 0 .727-.14 1.008-.422.28-.28.422-.617.422-1.008 0-.39-.14-.726-.422-1.008zM19.5 36c-2.28 0-4.422-.43-6.422-1.29-2-.858-3.75-2.038-5.25-3.538s-2.68-3.25-3.54-5.25C3.43 23.922 3 21.782 3 19.5c0-2.28.43-4.422 1.29-6.422.858-2 2.038-3.75 3.538-5.25s3.25-2.68 5.25-3.54C15.078 3.43 17.218 3 19.5 3c2.28 0 4.422.43 6.422 1.29 2 .858 3.75 2.038 5.25 3.538s2.68 3.25 3.54 5.25c.858 2 1.288 4.14 1.288 6.422 0 2.28-.43 4.422-1.29 6.422-.858 2-2.038 3.75-3.538 5.25s-3.25 2.68-5.25 3.54c-2 .858-4.14 1.288-6.422 1.288z" fill-rule="evenodd"/></symbol><symbol viewBox="0 0 12 18" id="svg-map-pin"><path fill-rule="evenodd" d="M11.99 5.54C11.99 2.48 9.31 0 6 0S.01 2.48.01 5.54c0 1.01.3 1.95.81 2.77H.81L6 18l5.19-9.69h-.01c.52-.82.81-1.76.81-2.77zM6 8.99c-1.65 0-3-1.34-3-3s1.35-3.01 3-3.01c1.66 0 3 1.35 3 3.01 0 1.66-1.34 3-3 3z"/></symbol><symbol viewBox="0 0 16 16" id="svg-messages-read"><path fill-rule="evenodd" d="M9 0H7L-.01 4.62v9.47c0 1.05.86 1.9 1.92 1.9h12.18c1.06 0 1.92-.85 1.92-1.9V4.68L9 0zm5 13c0 .43-.56 1-1 1H3c-.44 0-1-.57-1-1V6l5 4h2l5-4v7z"/></symbol><symbol viewBox="0 0 16 13" id="svg-messages-unread"><path fill-rule="evenodd" d="M14.08 13H1.92C.86 13 0 12.13 0 11.06V1.95C0 .88.86.01 1.92.01h12.16C15.14.01 16 .88 16 1.95v9.11c0 1.07-.86 1.94-1.92 1.94zM14 2L9 6c-.55 0-1 .45-1 1 0-.55-.45-1-1-1L2 2c-.55 0-1 .45-1 1s.45 1 1 1l5 4c.55 0 1-.45 1-1 0 .55.45 1 1 1l5-4c.55 0 1-.45 1-1s-.45-1-1-1z"/></symbol><symbol viewBox="0 0 14 16" id="svg-moderate"><title>icon (moderate)</title><path d="M10.5 2V1H9c0-.27-.096-.505-.29-.703C8.52.1 8.28 0 8 0H6c-.27 0-.505.1-.703.297C5.1.495 5 .73 5 1H3.5v1H0v14h14V2h-3.5zm-6 0H6v-.5c0-.135.05-.253.148-.352.1-.1.217-.148.352-.148h1c.135 0 .253.05.352.148.1.1.148.217.148.352V2h1.5v2h-5V2zM13 15H1V3h2.5v2h7V3H13v12zm-2.875-7.86l-3.688 4.61-1.61-1.61c-.093-.093-.207-.14-.343-.14-.135 0-.25.047-.343.14-.093.094-.14.21-.14.344 0 .136.047.25.14.344l1.985 1.985c.01 0 .016.002.016.007v.024h.024c.005 0 .008.005.008.015.094.093.208.14.344.14.135 0 .25-.047.343-.14v-.016l3.984-4.985c.094-.094.14-.212.14-.352 0-.14-.046-.263-.14-.367-.104-.093-.227-.14-.367-.14-.14 0-.258.047-.352.14z" fill-rule="evenodd"/></symbol><symbol viewBox="0 0 16 15" id="svg-my-voices"><path fill-rule="evenodd" d="M8 1.87c3.28 0 5.99 2.53 5.99 5.54 0 3-2.71 5.62-5.99 5.62-.93 0-1.81-.38-2.59-.73-.6.73-1.52.82-1.93.82-.14 0-.22-.01-.22-.01.53-.88.51-1.38.39-2C2.67 10.14 2 8.84 2 7.41 2 4.4 4.72 1.87 8 1.87M8 0C3.59 0 .01 3.3.01 7.35c0 1.75.66 3.41 1.88 4.74.01.22-.06.44-.32.87-.24.38-1.26.87-1.08 1.28.19.41.57.69 1 .74.04 0 .17.02.37.02.59 0 2.58-.11 3.46-.73.86.29 1.76.62 2.68.62 4.41 0 7.99-3.49 7.99-7.54S12.41 0 8 0z"/></symbol><symbol viewBox="0 0 16 16" id="svg-open-in-gallery"><title>icon (open in gallery)</title><path d="M6.656 8.64L3 12.298V9.5c0-.135-.05-.253-.148-.352-.1-.1-.217-.148-.352-.148-.135 0-.253.05-.352.148-.1.1-.148.217-.148.352v4.016c0 .062.013.122.04.18.025.057.06.106.1.148v.015h.016c.042.04.09.075.15.1.056.027.116.04.178.04H6.5c.135 0 .253-.05.352-.148.1-.1.148-.217.148-.352 0-.135-.05-.253-.148-.352-.1-.1-.217-.148-.352-.148H3.703L7.36 9.344c.093-.094.14-.21.14-.344 0-.135-.047-.255-.14-.36-.094-.093-.212-.14-.352-.14-.14 0-.258.047-.352.14zm7.203-6.484V2.14h-.016c-.042-.04-.09-.075-.15-.1-.056-.027-.116-.04-.178-.04H9.5c-.135 0-.253.05-.352.148-.1.1-.148.217-.148.352 0 .135.05.253.148.352.1.1.217.148.352.148h2.797L8.64 6.656c-.093.094-.14.21-.14.352 0 .14.047.258.14.35.094.095.212.142.352.142.14 0 .258-.047.352-.14L13 3.702V6.5c0 .135.05.253.148.352.1.1.217.148.352.148.135 0 .253-.05.352-.148.1-.1.148-.217.148-.352V2.484c-.01-.062-.026-.12-.047-.17-.02-.054-.052-.106-.094-.158zM14 0H2C1.448 0 .977.195.586.586.196.976 0 1.448 0 2v12c0 .552.195 1.023.586 1.414.39.39.862.586 1.414.586h12c.552 0 1.023-.195 1.414-.586.39-.39.586-.862.586-1.414V2c0-.552-.195-1.023-.586-1.414C15.024.196 14.552 0 14 0zm1 14c0 .28-.096.518-.29.71-.192.194-.43.29-.71.29H2c-.27 0-.505-.096-.703-.29C1.1 14.52 1 14.28 1 14V2c0-.27.1-.505.297-.703C1.495 1.1 1.73 1 2 1h12c.28 0 .518.1.71.297.194.198.29.432.29.703v12z" fill-rule="evenodd"/></symbol><symbol viewBox="0 0 14 14" id="svg-pause"><path fill-rule="evenodd" d="M12.28 14h-1.56c-.95 0-1.73-.64-1.73-1.43V1.43C8.99.64 9.77 0 10.72 0h1.56c.95 0 1.73.64 1.73 1.43v11.14c0 .79-.78 1.43-1.73 1.43zm-9 0H1.72c-.95 0-1.73-.64-1.73-1.43V1.43C-.01.64.77 0 1.72 0h1.56c.95 0 1.73.64 1.73 1.43v11.14c0 .79-.78 1.43-1.73 1.43z"/></symbol><symbol viewBox="0 0 11 16" id="svg-pencil"><title>icon (write)</title><path d="M9.965.324c-.76-.416-1.415-.43-1.962-.047-.548.385-1.04.936-1.478 1.654l-.53.874-.55.874-.25.42-4.8 7.847c-.228.363-.356.78-.382 1.247-.026.468-.013.91.04 1.326.05.416.116.767.195 1.053l.117.43.46-.117c.31-.078.666-.2 1.072-.367.407-.166.818-.376 1.235-.63.417-.256.735-.565.954-.93l6.13-10.013c.437-.718.695-1.396.773-2.036.077-.64-.264-1.167-1.025-1.583zm-6.8 13.134c-.293.478-.697.803-1.213.974l-.774.258-.15-.757c-.098-.504 0-1 .29-1.49L5.854 5.05l1.845 1-4.534 7.408zM8.228 5.19L6.383 4.178l.532-.874L8.76 4.317l-.53.874zm1.063-1.746l-1.845-1c.292-.487.568-.885.828-1.192.26-.307.647-.325 1.157-.054.51.28.688.605.532.974-.156.37-.38.793-.672 1.272z" fill-rule="evenodd"/></symbol><symbol viewBox="0 0 32 40" id="svg-play"><title>icon (play)</title><path d="M0 0v40l32-20L0 0z" fill-rule="evenodd"/></symbol><symbol viewBox="0 0 28 28" id="svg-plus"><title>Shape</title><path d="M27 13H15V1c0-.27-.1-.505-.297-.703C14.505.1 14.27 0 14 0c-.27 0-.505.1-.703.297C13.1.495 13 .73 13 1v12H1c-.27 0-.505.1-.703.297C.1 13.495 0 13.73 0 14c0 .27.1.505.297.703C.495 14.9.73 15 1 15h12v12c0 .27.1.505.297.703.198.198.432.297.703.297.27 0 .505-.1.703-.297.198-.198.297-.432.297-.703V15h12c.27 0 .505-.1.703-.297.198-.198.297-.432.297-.703 0-.27-.1-.505-.297-.703C27.505 13.1 27.27 13 27 13z" fill-rule="evenodd"/></symbol><symbol viewBox="0 0 14 14" id="svg-print"><path fill-rule="evenodd" d="M12.58 11H11V9c0-.53-.53-1-1-1H4c-.47 0-1 .47-1 1v2H1.42c-.79 0-1.43-.72-1.43-1.59V4.57c0-.87.64-1.58 1.43-1.58h11.16c.79 0 1.43.71 1.43 1.58v4.84c0 .87-.64 1.59-1.43 1.59zm-.59-7c-.55 0-1 .45-1 1s.45.99 1 .99 1-.44 1-.99-.45-1-1-1zM3.01 0H11v2H3.01V0zm6.98 14H4V9h5.99v5z"/></symbol><symbol viewBox="0 0 16 16" id="svg-repost"><path d="M7 7H6v2H4v1h2v2h1v-2h2V9H7V7zm8-7H5c-.27 0-.505.1-.703.297C4.1.495 4 .73 4 1v1h1v-.5c0-.135.05-.253.148-.352.1-.1.217-.148.352-.148h9c.135 0 .253.05.352.148.1.1.148.217.148.352v9c0 .135-.05.253-.148.352-.1.1-.217.148-.352.148H14v1h1c.28 0 .518-.096.71-.29.194-.192.29-.43.29-.71V1c0-.27-.096-.505-.29-.703C15.52.1 15.28 0 15 0zm-3 3H1c-.27 0-.505.1-.703.297C.1 3.495 0 3.73 0 4v11c0 .28.1.518.297.71.198.194.432.29.703.29h11c.28 0 .518-.096.71-.29.194-.192.29-.43.29-.71V4c0-.27-.096-.505-.29-.703C12.52 3.1 12.28 3 12 3zm0 11.5c0 .135-.05.253-.148.352-.1.1-.217.148-.352.148h-10c-.135 0-.253-.05-.352-.148-.1-.1-.148-.217-.148-.352v-10c0-.135.05-.253.148-.352.1-.1.217-.148.352-.148h10c.135 0 .253.05.352.148.1.1.148.217.148.352v10z" fill-rule="evenodd"/></symbol><symbol viewBox="0 0 16 16" id="svg-repost-outline"><title>icon (repost)</title><path d="M15 0H5c-.27 0-.505.1-.703.297C4.1.495 4 .73 4 1v1h1v-.5c0-.135.05-.253.148-.352.1-.1.217-.148.352-.148h9c.135 0 .253.05.352.148.1.1.148.217.148.352v9c0 .135-.05.253-.148.352-.1.1-.217.148-.352.148H14v1h1c.28 0 .518-.096.71-.29.194-.192.29-.43.29-.71V1c0-.27-.096-.505-.29-.703C15.52.1 15.28 0 15 0zm-3 3H1c-.27 0-.505.1-.703.297C.1 3.495 0 3.73 0 4v11c0 .28.1.518.297.71.198.194.432.29.703.29h11c.28 0 .518-.096.71-.29.194-.192.29-.43.29-.71V4c0-.27-.096-.505-.29-.703C12.52 3.1 12.28 3 12 3zm0 11.5c0 .135-.05.253-.148.352-.1.1-.217.148-.352.148h-10c-.135 0-.253-.05-.352-.148-.1-.1-.148-.217-.148-.352v-10c0-.135.05-.253.148-.352.1-.1.217-.148.352-.148h10c.135 0 .253.05.352.148.1.1.148.217.148.352v10z" fill-rule="evenodd"/></symbol><symbol viewBox="0 0 7 12" id="svg-save"><path fill-rule="evenodd" d="M6.52 0H.48C.21 0 0 .21 0 .47V12l3.5-3.33L7 12V.47C7 .21 6.78 0 6.52 0z"/></symbol><symbol viewBox="0 0 11 16" id="svg-save-outline"><title>icon (save)</title><path d="M0 0v16l5.5-3 5.5 3V0H0zm10 14l-4.5-2.5L1 14V1h9v13z" fill-rule="evenodd"/></symbol><symbol viewBox="0 0 10 18" id="svg-saved"><path fill-rule="evenodd" d="M8.31 0H.69C.31 0 0 .31 0 .7V18l5-4 5 4V.7C10 .31 8.69 0 8.31 0zm-.84 11.01L5 9.16l-2.47 1.85.94-2.99L1 6.16h3.06L5 2.98l.94 3.18h3.05L6.52 8.02l.95 2.99z"/></symbol><symbol viewBox="0 0 14 14" id="svg-search"><title>Shape</title><path d="M13.877 13.29L9.98 9.392c.43-.502.768-1.067 1.02-1.696.25-.63.375-1.3.375-2.01 0-.783-.148-1.522-.444-2.214-.296-.693-.7-1.297-1.216-1.812C9.2 1.147 8.594.74 7.902.445 7.21.148 6.472 0 5.687 0c-.783 0-1.522.148-2.214.444C2.78.74 2.176 1.146 1.66 1.66 1.147 2.177.74 2.78.445 3.474.148 4.165 0 4.903 0 5.688 0 6.47.148 7.21.444 7.902c.297.693.702 1.297 1.217 1.812.516.515 1.12.92 1.813 1.217.692.297 1.43.445 2.215.445.71 0 1.38-.125 2.01-.376.628-.252 1.193-.59 1.695-1.02l3.896 3.897c.08.082.18.123.293.123.114 0 .212-.04.294-.123.082-.082.123-.18.123-.294 0-.114-.04-.212-.123-.294zm-8.19-2.79c-.665 0-1.29-.125-1.873-.376-.583-.25-1.093-.595-1.53-1.032-.438-.438-.782-.948-1.033-1.53C1 6.976.876 6.35.876 5.686S1 4.397 1.25 3.814c.252-.583.596-1.093 1.033-1.53.438-.438.948-.782 1.53-1.033C4.4 1 5.024.876 5.688.876c.666 0 1.29.125 1.874.376.584.252 1.094.596 1.532 1.033.437.438.78.948 1.032 1.53.25.585.376 1.21.376 1.874 0 .666-.125 1.29-.376 1.874-.25.584-.595 1.094-1.032 1.532-.438.437-.948.78-1.53 1.032-.585.25-1.21.376-1.875.376z" fill-rule="evenodd"/></symbol><symbol viewBox="0 0 16 16" id="svg-settings"><title>Shape</title><path d="M16 8c0-.52-.177-.97-.53-1.352-.355-.38-.793-.59-1.314-.632-.052-.167-.112-.334-.18-.5-.067-.167-.143-.33-.226-.485.333-.395.495-.848.484-1.358-.01-.51-.203-.953-.578-1.328-.364-.365-.804-.555-1.32-.57-.516-.016-.97.143-1.367.476-.157-.083-.32-.16-.486-.227-.166-.067-.333-.127-.5-.18-.04-.52-.252-.958-.632-1.312C8.972.178 8.522 0 8 0c-.52 0-.97.177-1.352.53-.38.355-.59.793-.632 1.314-.167.052-.334.112-.5.18-.167.067-.33.143-.485.226-.395-.333-.85-.495-1.366-.484-.516.01-.956.203-1.32.578-.375.375-.568.817-.578 1.328-.01.51.15.963.484 1.36-.083.155-.16.317-.227.484-.067.166-.127.333-.18.5-.52.04-.958.252-1.312.632C.178 7.028 0 7.478 0 8c0 .52.177.97.53 1.352.355.38.793.59 1.314.632.052.167.112.334.18.5.067.167.143.33.226.485-.333.395-.495.85-.484 1.366.01.516.203.956.578 1.32.364.375.804.568 1.32.578.516.01.97-.15 1.367-.484.157.083.32.16.486.227.166.067.333.127.5.18.04.52.252.958.632 1.312.38.353.83.53 1.352.53.52 0 .97-.177 1.352-.53.38-.355.59-.793.632-1.314.167-.052.334-.112.5-.18.167-.067.33-.143.485-.226.395.333.85.495 1.366.484.516-.01.956-.203 1.32-.578.375-.364.568-.804.578-1.32.01-.516-.15-.97-.484-1.367.083-.157.16-.32.227-.486.067-.166.127-.333.18-.5.52-.04.958-.252 1.312-.632.353-.38.53-.83.53-1.352zm-2.594 1c-.073.385-.185.755-.336 1.11-.15.354-.336.687-.554 1l.437.42c.198.2.297.436.297.712 0 .276-.1.513-.297.71-.198.2-.435.298-.71.298-.277 0-.514-.1-.712-.297l-.42-.437c-.313.218-.646.403-1 .554-.355.15-.725.263-1.11.336V14c0 .28-.096.518-.29.71-.192.194-.43.29-.71.29-.28 0-.518-.096-.71-.29C7.095 14.52 7 14.28 7 14v-.594c-.385-.073-.755-.185-1.11-.336-.354-.15-.687-.336-1-.554l-.42.437c-.2.198-.436.297-.712.297-.276 0-.513-.1-.71-.297-.2-.198-.298-.435-.298-.71 0-.277.1-.514.297-.712l.437-.42c-.218-.313-.403-.646-.554-1-.15-.355-.263-.725-.336-1.11H2c-.27 0-.505-.096-.703-.29C1.1 8.52 1 8.28 1 8c0-.27.1-.505.297-.703C1.495 7.1 1.73 7 2 7h.594c.073-.385.185-.755.336-1.11.15-.354.336-.687.554-1l-.437-.42c-.198-.2-.297-.436-.297-.712 0-.276.1-.513.297-.71.198-.2.435-.298.71-.298.277 0 .514.1.712.297l.42.437c.313-.218.646-.403 1-.554.355-.15.725-.258 1.11-.32V2c0-.27.1-.505.297-.703C7.495 1.1 7.73 1 8 1c.27 0 .505.1.703.297C8.9 1.495 9 1.73 9 2v.61c.385.062.755.17 1.11.32.354.15.687.336 1 .554l.42-.437c.2-.198.436-.297.712-.297.276 0 .513.1.71.297.2.198.298.435.298.71 0 .277-.1.514-.297.712l-.437.42c.218.313.403.646.554 1 .15.355.263.725.336 1.11H14c.28 0 .518.1.71.297.194.198.29.432.29.703 0 .28-.096.518-.29.71-.192.194-.43.29-.71.29h-.594zM8 5c-.833 0-1.542.294-2.125.883C5.292 6.47 5 7.177 5 8c0 .833.292 1.542.875 2.125S7.167 11 8 11c.823 0 1.53-.292 2.117-.875C10.707 9.542 11 8.833 11 8c0-.823-.294-1.53-.883-2.117C9.53 5.293 8.823 5 8 5zm0 5c-.552 0-1.023-.195-1.414-.586C6.196 9.024 6 8.552 6 8c0-.552.195-1.023.586-1.414C6.976 6.196 7.448 6 8 6c.552 0 1.023.195 1.414.586.39.39.586.862.586 1.414 0 .552-.195 1.023-.586 1.414-.39.39-.862.586-1.414.586z" fill-rule="evenodd"/></symbol><symbol viewBox="0 0 19 16" id="svg-share"><title>icon (share)</title><path d="M14.857 9.143c-.655 0-1.25.17-1.786.51-.534.338-.945.782-1.23 1.33l-5.072-2.25c.036-.12.06-.24.07-.358.013-.12.02-.244.02-.375 0-.083-.007-.167-.02-.25-.01-.083-.023-.16-.034-.232l5.142-2.286c.31.488.718.88 1.224 1.18.506.296 1.068.445 1.687.445.94 0 1.747-.333 2.42-1 .672-.667 1.01-1.476 1.01-2.428 0-.942-.338-1.748-1.01-2.42C16.604.335 15.797 0 14.857 0s-1.747.336-2.42 1.01c-.672.672-1.008 1.478-1.008 2.42 0 .13.005.255.016.374.012.12.03.238.054.357L6.446 6.41c-.285-.547-.696-.99-1.232-1.33-.535-.34-1.13-.51-1.785-.51-.954 0-1.763.338-2.43 1.01C.333 6.253 0 7.06 0 8c0 .952.333 1.762 1 2.43.667.665 1.476 1 2.43 1 .618 0 1.18-.15 1.686-.448.506-.297.914-.69 1.223-1.178l5.142 2.285c-.012.07-.024.148-.036.23-.01.085-.017.168-.017.25 0 .954.335 1.763 1.008 2.43.672.667 1.48 1 2.42 1s1.746-.333 2.42-1c.67-.667 1.008-1.476 1.008-2.43 0-.94-.337-1.746-1.01-2.418-.672-.673-1.478-1.01-2.42-1.01zm0-8c.63 0 1.17.223 1.616.67.447.446.67.985.67 1.616 0 .63-.223 1.168-.67 1.615-.446.446-.985.67-1.616.67-.63 0-1.17-.224-1.616-.67-.445-.447-.67-.985-.67-1.616 0-.632.225-1.17.67-1.617.447-.447.986-.67 1.617-.67zM3.43 10.286c-.632 0-1.17-.223-1.618-.67-.446-.446-.67-.985-.67-1.616 0-.63.224-1.17.67-1.616.447-.447.986-.67 1.617-.67.63 0 1.168.223 1.615.67.446.446.67.985.67 1.616 0 .63-.224 1.17-.67 1.616-.447.447-.985.67-1.616.67zm11.427 4.57c-.63 0-1.17-.222-1.616-.67-.445-.445-.67-.984-.67-1.615 0-.63.225-1.168.67-1.615.447-.446.986-.67 1.617-.67.63 0 1.17.224 1.616.67.447.447.67.985.67 1.616 0 .632-.223 1.17-.67 1.617-.446.447-.985.67-1.616.67z" fill-rule="evenodd"/></symbol><symbol viewBox="0 0 16 16" id="svg-sources"><title>icon (sources)</title><path d="M8 0C6.896 0 5.857.21 4.883.633c-.974.422-1.823.995-2.547 1.72-.724.723-1.294 1.57-1.71 2.538C.207 5.86 0 6.897 0 8s.208 2.143.625 3.117c.417.974.987 1.823 1.71 2.547.725.724 1.574 1.294 2.548 1.71C5.857 15.793 6.896 16 8 16s2.143-.208 3.117-.625c.974-.417 1.823-.987 2.547-1.71.724-.725 1.294-1.574 1.71-2.548C15.793 10.143 16 9.104 16 8s-.208-2.14-.625-3.11c-.417-.968-.987-1.814-1.71-2.538-.725-.724-1.574-1.297-2.548-1.72C10.143.213 9.104 0 8 0zM6 8h4c0 .552-.018 1.09-.055 1.61-.036.52-.086 1.015-.148 1.484-.292-.03-.586-.055-.883-.07C8.617 11.007 8.314 11 8 11c-.313 0-.617.008-.914.023-.297.016-.59.04-.883.07-.062-.468-.112-.963-.148-1.484C6.018 9.09 6 8.55 6 8zm.016-1c.02-.365.047-.72.078-1.07.03-.35.067-.69.11-1.024.29.03.585.055.882.07.297.016.6.024.914.024.313 0 .617-.008.914-.023.297-.016.59-.04.883-.07.042.333.078.674.11 1.023.03.35.057.705.077 1.07H6.016zm7.67-3.047c.314.438.577.914.79 1.43.214.515.357 1.054.43 1.617H10.97c-.012-.385-.038-.763-.08-1.133-.04-.37-.088-.726-.14-1.07.594-.094 1.138-.21 1.633-.352.495-.14.93-.304 1.304-.492zM15 8c0 .75-.115 1.466-.344 2.148-.23.683-.547 1.305-.953 1.868-.375-.177-.812-.336-1.312-.477-.5-.142-1.046-.254-1.64-.337.083-.49.146-1.002.187-1.54C10.98 9.13 11 8.574 11 8h4zm-1.672-4.5h-.86c-.27.073-.564.14-.882.203-.318.063-.66.115-1.023.156-.126-.542-.27-1.04-.438-1.493-.167-.453-.354-.846-.562-1.18.75.167 1.445.45 2.085.852.64.4 1.2.887 1.68 1.46zM8 1c.333 0 .643.268.93.805.286.536.518 1.247.695 2.132-.26.02-.526.037-.797.047C8.558 3.994 8.28 4 8 4c-.28 0-.557-.005-.828-.016-.27-.01-.537-.026-.797-.047.177-.885.41-1.596.695-2.132C7.357 1.268 7.667 1 8 1zm-1.563.187c-.208.334-.395.727-.562 1.18-.167.453-.312.95-.438 1.492-.364-.042-.705-.094-1.023-.157-.318-.062-.612-.13-.883-.203h-.858c.48-.563 1.04-1.047 1.68-1.453.64-.406 1.335-.693 2.085-.86zM2.313 3.953c.374.188.81.352 1.304.492.495.14 1.044.258 1.65.352-.064.344-.116.7-.158 1.07-.042.37-.068.748-.08 1.133H1.095c.073-.563.216-1.102.43-1.617.213-.516.476-.992.79-1.43zM5 8c0 .573.023 1.128.07 1.664.047.537.107 1.05.18 1.54-.594.082-1.14.194-1.64.335-.5.14-.938.3-1.313.476-.406-.563-.724-1.185-.953-1.868C1.114 9.466 1 8.75 1 8h4zm-2.344 4.5h.813c.27-.073.572-.14.905-.203.333-.063.688-.115 1.062-.156.126.542.27 1.042.438 1.5.167.46.354.855.562 1.188-.75-.177-1.447-.466-2.093-.867-.646-.4-1.21-.887-1.688-1.46zM8 15c-.333 0-.643-.268-.93-.805-.286-.536-.518-1.247-.695-2.132.26-.02.526-.037.797-.047.27-.01.547-.016.828-.016.28 0 .557.005.828.016.27.01.537.026.797.047-.177.885-.41 1.596-.695 2.132-.287.537-.597.805-.93.805zm1.563-.187c.208-.323.395-.714.562-1.172.167-.458.312-.958.438-1.5.374.042.73.094 1.062.157.333.062.635.13.906.203h.814c-.48.573-1.042 1.06-1.688 1.46-.646.402-1.343.686-2.093.853z" fill-rule="evenodd"/></symbol><symbol viewBox="0 0 16 14" id="svg-speaker"><path fill-rule="evenodd" d="M13.09 13.78c-.12.14-.28.21-.44.21-.17 0-.33-.07-.46-.22-.24-.28-.24-.73.01-1.01 1.76-1.95 2.61-3.97 2.53-6.02-.13-3.2-2.48-5.43-2.5-5.45-.27-.25-.31-.7-.09-1.01.23-.3.62-.34.89-.09.12.1 2.81 2.66 2.96 6.49.1 2.46-.88 4.85-2.9 7.1zm-1.82-3.01c-.14.14-.33.22-.52.22s-.38-.08-.53-.23c-.29-.31-.29-.8.01-1.1.89-.91 1.32-1.84 1.29-2.77-.07-1.44-1.24-2.48-1.25-2.49-.32-.27-.36-.76-.1-1.09.26-.33.73-.38 1.05-.11.07.06 1.69 1.48 1.78 3.62.06 1.39-.52 2.71-1.73 3.95zM0 10V4h5l4-3v12l-4-3H0z"/></symbol><symbol viewBox="0 0 16 16" id="svg-star"><path fill-rule="evenodd" d="M7.99 0L10 6h6l-5.02 3.88 1.89 6.1-4.86-3.76L3.11 16l1.92-6.11L0 6h6l1.99-6z"/></symbol><symbol viewBox="0 0 13 14" id="svg-stats"><path fill-rule="evenodd" d="M10.01 14V0H13v14h-2.99zM4.99 4.01h3.02V14H4.99V4.01zM0 8.01h2.99V14H0V8.01z"/></symbol><symbol viewBox="0 0 15 14" id="svg-thumbs-up"><path fill-rule="evenodd" d="M14.43 7.82c-.01.01-.02.01-.03.02.15.19.29.46.29.82 0 .55-.31.93-.69 1.15.16.22.24.49.24.8 0 .4-.14.89-.73 1.19.11.22.18.49.12.85-.09.67-.87 1.35-2.15 1.35H6.05c-.53 0-.95-.27-1.05-.67l-.01-.04V6.53c0-.3.05-.39.07-.43l.01-.02c.13-.21.26-.41.39-.6 1.12-1.75 1.5-2.33 1.43-3.41-.07-1.16.07-1.95 1-2.06C7.94.01 8 0 8.05 0c.26 0 .77.08 1.23.56.44.46.71 1.18.79 2.14.07.71.11 1.69-.07 2.3 1.02 0 3.3.18 3.61.18.67 0 1.39.46 1.39 1.49 0 .63-.31.97-.57 1.15zM3 14H2c-.52 0-.93-.44-1-1L0 7c.02.15.26-1 1-1h2s1 .05 1 1v6c0 .63-.42 1-1 1z"/></symbol><symbol viewBox="0 0 11 14" id="svg-trash"><path fill-rule="evenodd" d="M10.28 3.08L10 3v10c0 .98-1.05 1-2 1H3c-.95 0-2-.02-2-1V3l-.28.08c-.44 0-.72-.46-.72-.92C0 1.71.56 2 1 2h2V1c0-.81.21-1 1-1h3c.79 0 1 .19 1 1v1h2c.44 0 1.01-.29 1.01.16 0 .46-.29.92-.73.92zM5 11.68c0 .27.16.32.5.32.33 0 .48-.05.48-.32V5.34c0-.26-.15-.33-.48-.33-.34 0-.5.07-.5.33v6.34zM3.5 5c-.34 0-.5.07-.5.34v6.35c0 .27.16.31.5.31.33 0 .49-.04.49-.31V5.34c0-.27-.16-.34-.49-.34zM4 1v1h3V1H4zm3.98 4.34c0-.27-.15-.34-.48-.34-.34 0-.5.07-.5.34v6.35c0 .27.16.31.5.31.33 0 .48-.04.48-.31V5.34z"/></symbol><symbol viewBox="0 0 12 16" id="svg-trending"><path fill-rule="evenodd" d="M3.12 0s3.18 1.77 0 5.4C.24 8.68-1.47 12.17 1.7 14.77c.92.76 2.01 1.14 3.13 1.23-1.81-.41-3.15-1.83-1.58-4.36.96-1.55 3.35-3.38 2.56-5.54 0 0 4.92 6.69 1.19 9.9 6.24-1.34 6.63-8.57-3.88-16z"/></symbol><symbol viewBox="0 0 38 30" id="svg-twitter-bird"><path fill-rule="evenodd" d="M38.01 3.56c-1.4.6-2.91 1.01-4.48 1.19 1.61-.93 2.84-2.42 3.43-4.19-1.51.87-3.18 1.5-4.96 1.84C30.58.93 28.55.01 26.31.01c-4.31 0-7.8 3.39-7.8 7.57 0 .59.07 1.17.21 1.72-6.49-.31-12.23-3.32-16.08-7.9-.67 1.12-1.05 2.42-1.05 3.8 0 2.63 1.37 4.95 3.46 6.3-1.27-.04-2.48-.38-3.53-.95v.1c0 3.67 2.69 6.73 6.26 7.42-.66.17-1.35.27-2.06.27-.5 0-.99-.05-1.46-.14.99 3.01 3.87 5.2 7.28 5.26-2.67 2.03-6.03 3.24-9.68 3.24-.63 0-1.25-.04-1.86-.11 3.45 2.15 7.55 3.4 11.95 3.4 14.34 0 22.19-11.53 22.19-21.53 0-.33-.01-.66-.03-.98 1.53-1.07 2.85-2.4 3.9-3.92z"/></symbol><symbol viewBox="0 0 16 15" id="svg-upload"><title>icon (upload)</title><path d="M11.772 9.687c.093-.104.14-.226.14-.367 0-.14-.047-.257-.14-.35L8.81 5.874v-.008c0-.005-.005-.008-.016-.008v-.016c0-.01-.002-.016-.008-.016h-.023c-.04-.042-.088-.073-.14-.094-.05-.02-.103-.03-.154-.03-.012 0-.017-.003-.017-.01 0-.004-.005-.007-.015-.007-.01 0-.02.003-.024.008l-.008.008c-.05 0-.098.01-.14.03-.04.022-.082.048-.123.08-.01.01-.02.015-.03.015-.012 0-.022.005-.032.016l-.007.015c-.005.01-.008.02-.008.03H8.05L5.103 8.97c-.093.093-.14.21-.14.35 0 .14.047.263.14.367.093.094.207.14.34.14.135 0 .25-.046.342-.14l2.156-2.25v7.047c0 .146.05.27.15.368.097.1.213.148.348.148.134 0 .25-.05.348-.148.1-.1.148-.222.148-.368V7.437l2.156 2.25c.093.094.207.14.34.14.135 0 .25-.046.342-.14zm.403-6.468c-.144-.47-.354-.9-.628-1.29s-.594-.73-.96-1.016C10.218.628 9.81.404 9.36.242 8.91.082 8.438 0 7.94 0c-.537 0-1.048.094-1.534.28-.486.19-.92.45-1.303.783-.383.333-.708.726-.977 1.18-.27.452-.455.944-.56 1.476-.505.103-.976.296-1.41.577-.434.28-.812.622-1.132 1.023-.32.4-.572.854-.753 1.36C.09 7.185 0 7.72 0 8.28c0 .637.116 1.238.35 1.806.232.568.55 1.062.953 1.484.403.422.876.756 1.42 1 .542.245 1.124.367 1.744.367H5.956V11.89h-1.49c-.475 0-.925-.093-1.348-.28-.424-.188-.794-.446-1.11-.774-.315-.328-.563-.71-.744-1.15-.18-.436-.27-.905-.27-1.405s.09-.97.27-1.413c.18-.443.43-.828.745-1.156.314-.327.684-.585 1.108-.773.423-.187.873-.28 1.35-.28 0-.5.09-.97.27-1.407.18-.437.43-.82.745-1.148.315-.33.685-.59 1.11-.782.423-.192.873-.29 1.348-.29.435 0 .85.082 1.242.243.393.162.742.383 1.047.664.304.282.555.612.75.993.198.38.327.79.39 1.226.485.03.942.15 1.372.36.43.208.803.487 1.124.836.32.35.57.75.752 1.203.18.453.272.94.272 1.46 0 .51-.09.993-.272 1.446-.18.454-.426.855-.736 1.204-.31.35-.678.63-1.102.844-.424.213-.88.336-1.365.367l-.496.016v1.016c.04 0 .082.005.123.016.042.01.083.015.124.015.652 0 1.264-.13 1.838-.39.574-.26 1.073-.612 1.497-1.055.424-.443.76-.963 1.008-1.562.248-.6.372-1.237.372-1.914 0-.584-.093-1.14-.28-1.672-.185-.53-.443-1.008-.774-1.43-.33-.422-.724-.78-1.18-1.07-.454-.292-.945-.5-1.473-.625z" fill-rule="evenodd"/></symbol><symbol viewBox="0 0 16 16" id="svg-video"><title>icon-video</title><path d="M15 0H1C.73 0 .495.1.297.297.1.495 0 .73 0 1v14c0 .28.1.518.297.71.198.194.432.29.703.29h14c.28 0 .518-.096.71-.29.194-.192.29-.43.29-.71V1c0-.27-.096-.505-.29-.703C15.52.1 15.28 0 15 0zM3 15H1.5c-.135 0-.253-.05-.352-.148-.1-.1-.148-.217-.148-.352V13h2v2zm0-3H1v-2h2v2zm0-4v1H1V7h2v1zm0-2H1V4h2v2zm0-3H1V1.5c0-.135.05-.253.148-.352.1-.1.217-.148.352-.148H3v2zm9 7v5H4V9h8v1zm0-7v5H4V1h8v2zm3 11.5c0 .135-.05.253-.148.352-.1.1-.217.148-.352.148H13v-2h2v1.5zm0-2.5h-2v-2h2v2zm0-3h-2V7h2v2zm0-3h-2V4h2v2zm0-3h-2V1h1.5c.135 0 .253.05.352.148.1.1.148.217.148.352V3z" fill-rule="evenodd"/></symbol><symbol viewBox="0 0 15 14" id="svg-warning"><title>icon (warning)</title><path d="M14.605 14H.395c-.14 0-.27-.077-.34-.204-.072-.127-.073-.283-.004-.41L7.157.21c.07-.13.2-.21.344-.21.143 0 .274.08.344.21l7.105 13.176c.068.127.067.283-.004.41-.07.127-.2.204-.34.204zm-.675-1L7.5 1.2 1.07 13h12.86zM7.5 9.474c-.218 0-.395-.177-.395-.394V5.132c0-.218.177-.394.395-.394.218 0 .395.176.395.394V9.08c0 .217-.177.394-.395.394zm0 2.37c-.218 0-.395-.178-.395-.396v-.79c0-.217.177-.394.395-.394.218 0 .395.177.395.394v.79c0 .218-.177.395-.395.395z" fill-rule="evenodd"/></symbol></svg>