<svg width="0" height="0" style="position:absolute"><symbol viewBox="0 0 18 16" id="svg-activity"><path fill-rule="evenodd" d="M8.73 16h-.02c-.29-.01-.53-.24-.58-.54L6.45 4.27 4.88 9.33c-.09.26-.32.43-.58.43H.61c-.34 0-.61-.51-.61-.87 0-.35.27-.75.61-.75h3.26L6.09.43c.1-.28.36-.46.63-.43.28.03.51.25.55.54l1.56 11.37 1.65-8.63c.06-.29.31-.5.59-.5h.01c.29 0 .53.22.59.52l1.37 6.97.45-1.67c.08-.27.32-.46.59-.46h3.31c.34 0 .61.45.61.81 0 .36-.27.87-.61.87h-2.85l-1.02 3.14c-.08.29-.34.5-.61.47-.28-.01-.52-.23-.57-.52l-1.19-6.04-1.82 8.63c-.06.29-.31.5-.6.5z"/></symbol><symbol viewBox="0 0 8 5" id="svg-arrow-down"><path fill-rule="evenodd" d="M0 0h8L4 5 0 0z"/></symbol><symbol viewBox="0 0 9 6" id="svg-arrow-down-2"><path fill-rule="evenodd" d="M0 1.49L4.5 6 9 1.49 7.53 0 4.5 3.03 1.47 0 0 1.49z"/></symbol><symbol viewBox="0 0 16 25" id="svg-arrow-left"><path fill-rule="evenodd" d="M12.56 25.01L16 21.57 6.89 12.5 16 3.43 12.56-.01 0 12.51l12.56 12.5z"/></symbol><symbol viewBox="0 0 16 25" id="svg-arrow-right"><path fill-rule="evenodd" d="M3.44 25.01L0 21.57l9.11-9.07L0 3.43 3.44-.01 16 12.51 3.44 25.01z"/></symbol><symbol viewBox="0 0 8 5" id="svg-arrow-up"><path fill-rule="evenodd" d="M8 5H0l4-5 4 5z"/></symbol><symbol viewBox="0 0 8 14" id="svg-arrow-up-down"><path fill-rule="evenodd" d="M4 0l4 5H0l4-5zm0 14L0 9h8l-4 5z"/></symbol><symbol viewBox="0 0 37 37" id="svg-badge"><path fill-rule="evenodd" d="M32.04 32.04L27.1 33.4 23.46 37l-4.96-1.29L13.54 37 9.9 33.4l-4.94-1.36L3.6 27.1 0 23.46l1.3-4.96L0 13.54 3.6 9.9l1.36-4.94L9.9 3.6 13.54 0l4.96 1.29L23.46 0l3.64 3.6 4.94 1.36L33.4 9.9l3.6 3.64-1.3 4.96 1.3 4.96-3.6 3.64-1.36 4.94z"/></symbol><symbol viewBox="0 0 12 15" id="svg-bell"><path fill-rule="evenodd" d="M11.52 13H.48c-.26 0-.47-.22-.47-.5v-1.49c0-.27.15-.66.33-.85C.34 10.16 2 8.64 2 8V3c0-.31.35-.52.6-.61l1.38-.56c.24-.1.43-.4.42-.67 0 0-.05-1.16 1.59-1.16 1.7 0 1.62 1.16 1.62 1.16-.02.27.17.57.41.67l1.38.56c.25.09.6.33.6.61v5c0 .97 1.66 2.16 1.66 2.16.18.19.34.58.34.85v1.49c0 .28-.22.5-.48.5zM6 13.01c.55 0 .99.45.99 1 0 .54-.44.99-.99.99s-.99-.45-.99-.99c0-.55.44-1 .99-1z"/></symbol><symbol viewBox="0 0 18 18" id="svg-browse"><path fill-rule="evenodd" d="M15.37 15.36C13.61 17.12 11.3 18 9 18c-2.31 0-4.62-.88-6.38-2.64-3.52-3.51-3.52-9.21 0-12.72C4.38.88 6.69 0 9 0c2.3 0 4.61.88 6.37 2.64 3.52 3.51 3.52 9.21 0 12.72zM13.95 4.05C12.63 2.73 10.87 2 9 2c-1.88 0-3.64.73-4.96 2.05C2.72 5.37 1.99 7.13 1.99 9s.73 3.63 2.05 4.95C5.36 15.27 7.12 16 9 16c1.87 0 3.63-.73 4.95-2.05C15.28 12.63 16 10.87 16 9s-.72-3.63-2.05-4.95zm-3.71 6.18c-.01.01-.03.03-.05.04l-5.47 3.17c-.02.01-.04.01-.06.01-.03 0-.06-.01-.09-.03-.04-.04-.05-.1-.02-.15L7.73 7.8c.01-.01.01-.02.01-.02.02-.02.04-.04.06-.05l5.47-3.17c.02-.01.04-.01.06-.01.03 0 .06.01.09.03.04.04.05.1.02.15l-3.18 5.47c0 .01-.01.02-.02.03zM8.86 7.99l1.15 1.14 1.59-2.74-2.74 1.6z"/></symbol><symbol viewBox="0 0 11 12" id="svg-calendar"><path fill-rule="evenodd" d="M10.09 12H.86c-.47 0-.86-.39-.86-.87V1.86C0 1.38.39.99.86.99h2.12V0h1.03v.99h2.98V0h1v.99h2.33c.47 0 .68.21.68.69v9.29c0 .48-.43 1.03-.91 1.03zM4 1H3v1h1V1zm4 0H7v1h1V1zm2 3.41c0-.23-.19-.42-.42-.42H1.42c-.24 0-.43.19-.43.42v6.17c0 .23.19.42.43.42h8.16c.23 0 .42-.19.42-.42V4.41z"/></symbol><symbol viewBox="0 0 16 16" id="svg-cirlce-add"><path fill-rule="evenodd" d="M8 0C3.58 0 0 3.58 0 8s3.58 8 8 8 8-3.58 8-8-3.58-8-8-8zm3.59 8.94H8.93v2.64c0 .52-.41.94-.93.94s-.94-.42-.94-.94V8.94H4.42c-.52 0-.94-.42-.94-.94s.42-.93.94-.93h2.64V4.41c0-.51.42-.93.94-.93s.93.42.93.93v2.66h2.66c.51 0 .93.41.93.93s-.42.94-.93.94z"/></symbol><symbol viewBox="0 0 16 16" id="svg-cirlce-delete"><path fill-rule="evenodd" d="M8 0C3.58 0 0 3.59 0 8c0 4.42 3.58 8 8 8 4.41 0 8-3.58 8-8 0-4.41-3.59-8-8-8zm3.58 8.94H4.42c-.52 0-.94-.42-.94-.94 0-.51.42-.93.94-.93h7.16c.52 0 .94.42.94.93 0 .52-.42.94-.94.94z"/></symbol><symbol viewBox="0 0 16 16" id="svg-cirlce-x"><path fill-rule="evenodd" d="M13.66 13.66c3.12-3.13 3.12-8.19 0-11.32-3.13-3.12-8.19-3.12-11.32 0-3.12 3.13-3.12 8.19 0 11.32 3.13 3.12 8.19 3.12 11.32 0zM4.8 9.87L6.68 8 4.81 6.13c-.37-.37-.37-.96-.01-1.33.37-.36.96-.36 1.33 0L8 6.68 9.87 4.8c.37-.36.96-.36 1.32 0 .37.37.37.96.01 1.33L9.32 8l1.88 1.87c.36.37.36.96 0 1.33-.37.36-.96.36-1.33 0L8 9.32 6.13 11.2c-.37.36-.96.36-1.33 0-.36-.37-.36-.96 0-1.33z"/></symbol><symbol viewBox="0 0 20 17" id="svg-embed"><path fill-rule="evenodd" d="M15.86 12.74l-1.12-1.15 3.03-3.09-3.03-3.09 1.12-1.15L20 8.5l-4.14 4.24zm-9.41 2.81L12.88.48l1.01.57-6.41 15.09-1.03-.59zm-2.31-2.81L0 8.5l4.14-4.24 1.12 1.15L2.23 8.5l3.03 3.09-1.12 1.15z"/></symbol><symbol viewBox="0 0 13 16" id="svg-fist"><path fill-rule="evenodd" d="M12.94 4.7l-1.01 2.43c-.18.45-.68.67-1.1.49-.42-.19-.6-.7-.42-1.16l1.01-2.43c.19-.46.68-.67 1.1-.49.42.19.61.7.42 1.16zM9.93 6.25c-.19.45-.68.67-1.1.49-.42-.19-.61-.71-.42-1.16l1.35-3.26c.19-.46.68-.68 1.1-.49.42.18.61.7.42 1.15L9.93 6.25zm-2-.88c-.13.32-.42.52-.73.55-.28-.26-.56-.46-.83-.61.53-.04.94-.25 1.24-.47.56-.41.81-.95.84-1.01l.19-.42-.4-.18-1.04-.45.56-1.35c.19-.45.68-.67 1.1-.48.42.18.61.7.42 1.15L7.93 5.37zM6.72 2.56L5.2 1.9 5.76.55c.18-.45.68-.67 1.1-.48.42.18.6.7.42 1.15l-.56 1.34zM5.06 4.61l-.34.59s1.95.19 2.99 2.08c0 0 2.52.17 3.82 1.65 0 0-3.58 4.67-3.63 4.76-.66 1.15.66 1.94.66 1.94s-2.5.81-4.61 0C1.79 14.81 0 13.04 0 13.04s1.77-.22 1.97-.65c.56-1.15 1.26-2.71 1.26-2.71l-1.4-4.97 2.55-2.69 3.69 1.63s-.85 1.89-3.01.96z"/></symbol><symbol viewBox="0 0 18 15" id="svg-flag"><path fill-rule="evenodd" d="M11.99 9.56l1.05-2.8c2.84 3.48 4.96 3.39 4.96 3.39-2.67 1.03-6.01-.59-6.01-.59zM4.51 7.24L6.72.79c2.38-.45 6.02 4.44 6.02 4.44l-1.09 3.02C7.71 6.03 4.51 7.24 4.51 7.24zm-3.43 7.38c-.08.24-.3.38-.52.38-.07 0-.13-.01-.19-.03-.29-.11-.44-.44-.34-.74L4.94.38c.1-.3.42-.46.71-.35.29.11.44.44.33.74l-4.9 13.85z"/></symbol><symbol viewBox="0 0 16 16" id="svg-home"><path fill-rule="evenodd" d="M15.69 7.65c-.29.31-.78.31-1.08 0l-.08-.08c-.01-.01-.03-.02-.05-.04L8.36 2.14c-.19-.19-.5-.19-.69 0L1.44 7.52c-.07.07-.15.12-.23.17-.01 0-.01.01-.02.01-.02.01-.03.02-.04.02-.18.1-.39.12-.58.07C.44 7.76.32 7.7.22 7.6c-.32-.35-.28-.75.05-1.09L7.41.24c.32-.32.89-.32 1.21 0l7.22 6.39c.3.31.15.72-.15 1.02zM8.34 4.13L14 9v7h-4v-5c0-.27-.73-1-1-1H7c-.27 0-1 .73-1 1v5H2V9l5.63-4.87c.2-.19.51-.19.71 0z"/></symbol><symbol viewBox="0 0 16 14" id="svg-image"><path fill-rule="evenodd" d="M15.32 14.01H.68c-.38 0-.69-.3-.69-.68V.67c0-.37.31-.68.69-.68h14.64c.38 0 .69.31.69.68v12.66c0 .38-.31.68-.69.68zM15 1H1v12h14V1zm-5.65 9.93l2-2.29 2.64 3.37H2l3.99-5.02 3.36 3.94zm2.15-3.94c-.83 0-1.51-.67-1.51-1.49 0-.83.68-1.5 1.51-1.5.84 0 1.51.67 1.51 1.5 0 .82-.67 1.49-1.51 1.49z"/></symbol><symbol viewBox="0 0 12 18" id="svg-map-pin"><path fill-rule="evenodd" d="M11.99 5.54C11.99 2.48 9.31 0 6 0S.01 2.48.01 5.54c0 1.01.3 1.95.81 2.77H.81L6 18l5.19-9.69h-.01c.52-.82.81-1.76.81-2.77zM6 8.99c-1.65 0-3-1.34-3-3s1.35-3.01 3-3.01c1.66 0 3 1.35 3 3.01 0 1.66-1.34 3-3 3z"/></symbol><symbol viewBox="0 0 16 16" id="svg-messages-read"><path fill-rule="evenodd" d="M9 0H7L-.01 4.62v9.47c0 1.05.86 1.9 1.92 1.9h12.18c1.06 0 1.92-.85 1.92-1.9V4.68L9 0zm5 13c0 .43-.56 1-1 1H3c-.44 0-1-.57-1-1V6l5 4h2l5-4v7z"/></symbol><symbol viewBox="0 0 16 13" id="svg-messages-unread"><path fill-rule="evenodd" d="M14.08 13H1.92C.86 13 0 12.13 0 11.06V1.95C0 .88.86.01 1.92.01h12.16C15.14.01 16 .88 16 1.95v9.11c0 1.07-.86 1.94-1.92 1.94zM14 2L9 6c-.55 0-1 .45-1 1 0-.55-.45-1-1-1L2 2c-.55 0-1 .45-1 1s.45 1 1 1l5 4c.55 0 1-.45 1-1 0 .55.45 1 1 1l5-4c.55 0 1-.45 1-1s-.45-1-1-1z"/></symbol><symbol viewBox="0 0 16 15" id="svg-my-voices"><path fill-rule="evenodd" d="M8 1.87c3.28 0 5.99 2.53 5.99 5.54 0 3-2.71 5.62-5.99 5.62-.93 0-1.81-.38-2.59-.73-.6.73-1.52.82-1.93.82-.14 0-.22-.01-.22-.01.53-.88.51-1.38.39-2C2.67 10.14 2 8.84 2 7.41 2 4.4 4.72 1.87 8 1.87M8 0C3.59 0 .01 3.3.01 7.35c0 1.75.66 3.41 1.88 4.74.01.22-.06.44-.32.87-.24.38-1.26.87-1.08 1.28.19.41.57.69 1 .74.04 0 .17.02.37.02.59 0 2.58-.11 3.46-.73.86.29 1.76.62 2.68.62 4.41 0 7.99-3.49 7.99-7.54S12.41 0 8 0z"/></symbol><symbol viewBox="0 0 14 14" id="svg-pause"><path fill-rule="evenodd" d="M12.28 14h-1.56c-.95 0-1.73-.64-1.73-1.43V1.43C8.99.64 9.77 0 10.72 0h1.56c.95 0 1.73.64 1.73 1.43v11.14c0 .79-.78 1.43-1.73 1.43zm-9 0H1.72c-.95 0-1.73-.64-1.73-1.43V1.43C-.01.64.77 0 1.72 0h1.56c.95 0 1.73.64 1.73 1.43v11.14c0 .79-.78 1.43-1.73 1.43z"/></symbol><symbol viewBox="0 0 14 14" id="svg-pencil"><path fill-rule="evenodd" d="M13.87 3.33l-8.56 8.68L2 8.79 10.57.11c.16-.16.42-.16.58 0l2.72 2.64c.16.16.16.42 0 .58zM.55 13.95c-.4.16-.63-.06-.51-.47L1.2 10l2.81 2.79-3.46 1.16z"/></symbol><symbol viewBox="0 0 14 16" id="svg-play"><path fill-rule="evenodd" d="M13.03 6.59L2.3.32C1.04-.41.01.14.01 1.55L0 14.45c0 1.42 1.02 1.96 2.27 1.22l10.78-6.4c1.25-.74 1.24-1.95-.02-2.68z"/></symbol><symbol viewBox="0 0 14 14" id="svg-print"><path fill-rule="evenodd" d="M12.58 11H11V9c0-.53-.53-1-1-1H4c-.47 0-1 .47-1 1v2H1.42c-.79 0-1.43-.72-1.43-1.59V4.57c0-.87.64-1.58 1.43-1.58h11.16c.79 0 1.43.71 1.43 1.58v4.84c0 .87-.64 1.59-1.43 1.59zm-.59-7c-.55 0-1 .45-1 1s.45.99 1 .99 1-.44 1-.99-.45-1-1-1zM3.01 0H11v2H3.01V0zm6.98 14H4V9h5.99v5z"/></symbol><symbol viewBox="0 0 15 13" id="svg-repost"><path fill-rule="evenodd" d="M1.5 2.34C2.47 1.19 3.84.39 5.34.12 6.85-.16 8.45.11 9.8.85c1.37.73 2.46 1.96 3.05 3.39.29.71.46 1.48.5 2.25.02.39 0 .78-.05 1.16-.02.2-.05.38-.1.58-.04.22-.09.37-.14.54l-.03-.01 1.97.61-3.95 2.29L9.8 7.21l1.64 1.02c.38-1.13.34-2.32-.07-3.43-.42-1.11-1.24-2.07-2.28-2.68-1.05-.6-2.3-.85-3.5-.66-1.2.18-2.33.79-3.13 1.7-.81.9-1.29 2.1-1.32 3.33-.04 1.23.36 2.48 1.13 3.47.76 1 1.88 1.72 3.12 2.02 1.23.3 2.57.16 3.72-.39l.36.71c-1.29.67-2.82.88-4.27.57-1.45-.31-2.8-1.12-3.73-2.28C.52 9.43-.01 7.95 0 6.46c0-1.49.53-2.97 1.5-4.12z"/></symbol><symbol viewBox="0 0 7 12" id="svg-save"><path fill-rule="evenodd" d="M6.52 0H.48C.21 0 0 .21 0 .47V12l3.5-3.33L7 12V.47C7 .21 6.78 0 6.52 0z"/></symbol><symbol viewBox="0 0 10 18" id="svg-saved"><path fill-rule="evenodd" d="M8.31 0H.69C.31 0 0 .31 0 .7V18l5-4 5 4V.7C10 .31 8.69 0 8.31 0zm-.84 11.01L5 9.16l-2.47 1.85.94-2.99L1 6.16h3.06L5 2.98l.94 3.18h3.05L6.52 8.02l.95 2.99z"/></symbol><symbol viewBox="0 0 13 14" id="svg-search"><path fill-rule="evenodd" d="M12.5 13.59c-.26.25-.58.39-.91.41-.45.04-.92-.12-1.25-.49l-2.76-3c-.02-.03-.04-.05-.06-.08-1.83.8-4.04.53-5.61-.84C-.35 7.65-.62 4.2 1.29 1.91c.18-.21.37-.41.58-.59C3.85-.43 6.85-.45 8.85 1.28c1.09.95 1.75 2.27 1.87 3.72.1 1.22-.21 2.41-.86 3.42l2.72 2.97c.57.63.54 1.61-.08 2.2zM7.46 2.95c-1.2-1.04-3-1.03-4.19.01-.12.11-.24.23-.35.36-1.14 1.38-.98 3.44.37 4.61 1.2 1.04 3 1.03 4.19-.02.12-.11.24-.23.35-.35.55-.67.82-1.52.75-2.39-.07-.87-.47-1.66-1.12-2.22z"/></symbol><symbol viewBox="0 0 14 19" id="svg-share"><path fill-rule="evenodd" d="M12.77 19H1.23C.55 19 0 18.44 0 17.75v-9.5C0 7.56.55 7 1.23 7h2.78v2H2.53c-.29 0-.52.23-.52.52v6.96c0 .29.23.52.52.52h8.94c.29 0 .52-.23.52-.52V9.52c0-.29-.23-.52-.52-.52H9.99V7h2.78c.68 0 1.23.56 1.23 1.25v9.5c0 .69-.55 1.25-1.23 1.25zM9.82 4.77l-1.84-1.8v10.4c0 .35-.44.63-.98.63s-.98-.28-.98-.63V2.97l-1.84 1.8c-.27.29-.71.29-.98 0s-.27-.77 0-1.06L7 0l3.8 3.71c.27.29.27.77 0 1.06-.27.29-.71.29-.98 0z"/></symbol><symbol viewBox="0 0 16 14" id="svg-speaker"><path fill-rule="evenodd" d="M13.09 13.78c-.12.14-.28.21-.44.21-.17 0-.33-.07-.46-.22-.24-.28-.24-.73.01-1.01 1.76-1.95 2.61-3.97 2.53-6.02-.13-3.2-2.48-5.43-2.5-5.45-.27-.25-.31-.7-.09-1.01.23-.3.62-.34.89-.09.12.1 2.81 2.66 2.96 6.49.1 2.46-.88 4.85-2.9 7.1zm-1.82-3.01c-.14.14-.33.22-.52.22s-.38-.08-.53-.23c-.29-.31-.29-.8.01-1.1.89-.91 1.32-1.84 1.29-2.77-.07-1.44-1.24-2.48-1.25-2.49-.32-.27-.36-.76-.1-1.09.26-.33.73-.38 1.05-.11.07.06 1.69 1.48 1.78 3.62.06 1.39-.52 2.71-1.73 3.95zM0 10V4h5l4-3v12l-4-3H0z"/></symbol><symbol viewBox="0 0 100 100" id="svg-spinner"><rect x="48.5" y="44.5" width="3" height="11" rx="2" ry="2" fill="#0d0d0d" transform="rotate(0 50 50) translate(0 -20)"/><rect x="48.5" y="44.5" width="3" height="11" rx="2" ry="2" fill="#bfbfbf" transform="rotate(25.714 50 50) translate(0 -20)"/><rect x="48.5" y="44.5" width="3" height="11" rx="2" ry="2" transform="rotate(51.429 50 50) translate(0 -20)"/><rect x="48.5" y="44.5" width="3" height="11" rx="2" ry="2" transform="rotate(77.143 50 50) translate(0 -20)"/><rect x="48.5" y="44.5" width="3" height="11" rx="2" ry="2" transform="rotate(102.857 50 50) translate(0 -20)"/><rect x="48.5" y="44.5" width="3" height="11" rx="2" ry="2" transform="rotate(128.571 50 50) translate(0 -20)"/><rect x="48.5" y="44.5" width="3" height="11" rx="2" ry="2" transform="rotate(154.286 50 50) translate(0 -20)"/><rect x="48.5" y="44.5" width="3" height="11" rx="2" ry="2" transform="rotate(180 50 50) translate(0 -20)"/><rect x="48.5" y="44.5" width="3" height="11" rx="2" ry="2" transform="rotate(205.714 50 50) translate(0 -20)"/><rect x="48.5" y="44.5" width="3" height="11" rx="2" ry="2" transform="rotate(231.429 50 50) translate(0 -20)"/><rect x="48.5" y="44.5" width="3" height="11" rx="2" ry="2" transform="rotate(257.143 50 50) translate(0 -20)"/><rect x="48.5" y="44.5" width="3" height="11" rx="2" ry="2" transform="rotate(282.857 50 50) translate(0 -20)"/><rect x="48.5" y="44.5" width="3" height="11" rx="2" ry="2" transform="rotate(308.571 50 50) translate(0 -20)"/><rect x="48.5" y="44.5" width="3" height="11" rx="2" ry="2" transform="rotate(334.286 50 50) translate(0 -20)"/></symbol><symbol viewBox="0 0 16 16" id="svg-star"><path fill-rule="evenodd" d="M7.99 0L10 6h6l-5.02 3.88 1.89 6.1-4.86-3.76L3.11 16l1.92-6.11L0 6h6l1.99-6z"/></symbol><symbol viewBox="0 0 13 14" id="svg-stats"><path fill-rule="evenodd" d="M10.01 14V0H13v14h-2.99zM4.99 4.01h3.02V14H4.99V4.01zM0 8.01h2.99V14H0V8.01z"/></symbol><symbol viewBox="0 0 15 14" id="svg-thumbs-up"><path fill-rule="evenodd" d="M14.43 7.82c-.01.01-.02.01-.03.02.15.19.29.46.29.82 0 .55-.31.93-.69 1.15.16.22.24.49.24.8 0 .4-.14.89-.73 1.19.11.22.18.49.12.85-.09.67-.87 1.35-2.15 1.35H6.05c-.53 0-.95-.27-1.05-.67l-.01-.04V6.53c0-.3.05-.39.07-.43l.01-.02c.13-.21.26-.41.39-.6 1.12-1.75 1.5-2.33 1.43-3.41-.07-1.16.07-1.95 1-2.06C7.94.01 8 0 8.05 0c.26 0 .77.08 1.23.56.44.46.71 1.18.79 2.14.07.71.11 1.69-.07 2.3 1.02 0 3.3.18 3.61.18.67 0 1.39.46 1.39 1.49 0 .63-.31.97-.57 1.15zM3 14H2c-.52 0-.93-.44-1-1L0 7c.02.15.26-1 1-1h2s1 .05 1 1v6c0 .63-.42 1-1 1z"/></symbol><symbol viewBox="0 0 11 14" id="svg-trash"><path fill-rule="evenodd" d="M10.28 3.08L10 3v10c0 .98-1.05 1-2 1H3c-.95 0-2-.02-2-1V3l-.28.08c-.44 0-.72-.46-.72-.92C0 1.71.56 2 1 2h2V1c0-.81.21-1 1-1h3c.79 0 1 .19 1 1v1h2c.44 0 1.01-.29 1.01.16 0 .46-.29.92-.73.92zM5 11.68c0 .27.16.32.5.32.33 0 .48-.05.48-.32V5.34c0-.26-.15-.33-.48-.33-.34 0-.5.07-.5.33v6.34zM3.5 5c-.34 0-.5.07-.5.34v6.35c0 .27.16.31.5.31.33 0 .49-.04.49-.31V5.34c0-.27-.16-.34-.49-.34zM4 1v1h3V1H4zm3.98 4.34c0-.27-.15-.34-.48-.34-.34 0-.5.07-.5.34v6.35c0 .27.16.31.5.31.33 0 .48-.04.48-.31V5.34z"/></symbol><symbol viewBox="0 0 12 16" id="svg-trending"><path fill-rule="evenodd" d="M3.12 0s3.18 1.77 0 5.4C.24 8.68-1.47 12.17 1.7 14.77c.92.76 2.01 1.14 3.13 1.23-1.81-.41-3.15-1.83-1.58-4.36.96-1.55 3.35-3.38 2.56-5.54 0 0 4.92 6.69 1.19 9.9 6.24-1.34 6.63-8.57-3.88-16z"/></symbol><symbol viewBox="0 0 38 30" id="svg-twitter-bird"><path fill-rule="evenodd" d="M38.01 3.56c-1.4.6-2.91 1.01-4.48 1.19 1.61-.93 2.84-2.42 3.43-4.19-1.51.87-3.18 1.5-4.96 1.84C30.58.93 28.55.01 26.31.01c-4.31 0-7.8 3.39-7.8 7.57 0 .59.07 1.17.21 1.72-6.49-.31-12.23-3.32-16.08-7.9-.67 1.12-1.05 2.42-1.05 3.8 0 2.63 1.37 4.95 3.46 6.3-1.27-.04-2.48-.38-3.53-.95v.1c0 3.67 2.69 6.73 6.26 7.42-.66.17-1.35.27-2.06.27-.5 0-.99-.05-1.46-.14.99 3.01 3.87 5.2 7.28 5.26-2.67 2.03-6.03 3.24-9.68 3.24-.63 0-1.25-.04-1.86-.11 3.45 2.15 7.55 3.4 11.95 3.4 14.34 0 22.19-11.53 22.19-21.53 0-.33-.01-.66-.03-.98 1.53-1.07 2.85-2.4 3.9-3.92z"/></symbol></svg>